<?xml version="1.0" encoding="utf-8"?>
<!-- Generator: Adobe Illustrator 16.0.0, SVG Export Plug-In . SVG Version: 6.00 Build 0)  -->
<!DOCTYPE svg PUBLIC "-//W3C//DTD SVG 1.1//EN" "http://www.w3.org/Graphics/SVG/1.1/DTD/svg11.dtd">
<svg version="1.1" id="圖層_1" xmlns="http://www.w3.org/2000/svg" xmlns:xlink="http://www.w3.org/1999/xlink" x="0px" y="0px"
	 width="267.65px" height="52.775px" viewBox="0 0 267.65 52.775" enable-background="new 0 0 267.65 52.775" xml:space="preserve">
<g>
	<path fill="#6DAD31" d="M57.255,6.413h18c0.907,0,1.797,0.176,2.67,0.534c0.875,0.354,1.725,0.966,2.563,1.839
		c1.452,1.517,2.224,3.806,2.323,6.874v1.112c0,2.838-0.338,4.904-1.021,6.191c-0.446,0.649-0.914,1.233-1.397,1.771
		c-0.485,0.53-1.147,1.022-1.988,1.477c-0.032,0.029-0.07,0.081-0.118,0.145c-0.05,0.063-0.074,0.145-0.074,0.235
		c0,0.071,0.02,0.138,0.053,0.198c0.74,0.973,1.265,1.818,1.567,2.543c0.313,0.728,0.591,1.478,0.852,2.252l2.654,8.178
		c0.072,0.258,0.19,0.493,0.371,0.7c0.173,0.213,0.265,0.351,0.265,0.414c0,0.16-0.099,0.243-0.294,0.243h-6.678
		c-0.19,0-0.4-0.17-0.625-0.513c-0.229-0.338-0.373-0.619-0.44-0.846l-2.996-8.473c-0.455-1.803-1.377-2.806-2.765-2.998h-5.903
		c-0.323,0-0.485,0.164-0.485,0.48v11.862c0,0.323-0.162,0.484-0.483,0.484h-6.05c-0.321,0-0.486-0.161-0.486-0.484V6.897
		C56.769,6.577,56.934,6.413,57.255,6.413z M64.273,12.702c-0.323,0-0.485,0.165-0.485,0.487v7.888c0,0.327,0.18,0.485,0.534,0.485
		h8.76c0.455,0,0.957-0.225,1.504-0.682c0.447-0.386,0.796-0.953,1.037-1.689c0.241-0.744,0.363-1.567,0.363-2.47
		c0-0.451-0.025-0.859-0.073-1.233c-0.049-0.374-0.153-0.72-0.314-1.042c-0.514-1.063-1.129-1.647-1.836-1.744H64.273z"/>
	<path fill="#6DAD31" d="M0,7.675c0-0.313,0.153-0.471,0.471-0.471h16.996c1.132,0,2.175,0.188,3.139,0.566
		c0.962,0.378,1.797,0.918,2.505,1.629c0.707,0.704,1.263,1.564,1.675,2.57c0.406,1.01,0.607,2.142,0.607,3.397
		c0,1.7-0.139,3.044-0.423,4.04c-0.277,0.989-0.601,1.745-0.964,2.264c-0.364,0.521-0.682,0.865-0.974,1.041
		c-0.279,0.172-0.422,0.306-0.422,0.4c0,0.16,0.24,0.488,0.732,0.987c0.486,0.507,1.03,1.086,1.627,1.751
		c0.222,0.28,0.415,0.606,0.591,0.987c0.171,0.381,0.325,0.767,0.452,1.16c0.126,0.393,0.211,0.783,0.257,1.182
		c0.046,0.393,0.072,0.729,0.072,1.014c0,1.51-0.142,2.928-0.424,4.25c-0.283,1.322-0.783,2.468-1.485,3.443
		c-0.708,0.976-1.648,1.748-2.813,2.313c-1.165,0.565-2.643,0.851-4.441,0.851H0.471C0.153,41.052,0,40.891,0,40.578V7.675z
		 M6.845,20.28c0,0.317,0.158,0.473,0.47,0.473h8.169c1.259,0,2.157-0.276,2.689-0.829c0.535-0.546,0.804-1.55,0.804-2.996
		c0-1.354-0.346-2.286-1.039-2.805c-0.688-0.521-1.508-0.784-2.454-0.784h-8.17c-0.312,0-0.47,0.159-0.47,0.473L6.845,20.28
		L6.845,20.28z M6.845,34.443c0,0.313,0.158,0.467,0.47,0.467h9.963c0.537,0,0.98-0.137,1.321-0.424
		c0.346-0.281,0.632-0.635,0.849-1.063c0.223-0.42,0.374-0.87,0.452-1.344c0.078-0.471,0.115-0.879,0.115-1.227
		c0-0.724-0.086-1.324-0.255-1.815c-0.174-0.489-0.396-0.874-0.67-1.157c-0.267-0.28-0.559-0.479-0.891-0.591
		c-0.331-0.107-0.638-0.167-0.922-0.167H7.314c-0.312,0-0.47,0.16-0.47,0.478L6.845,34.443L6.845,34.443z"/>
	<path fill="#0863A7" d="M53.392,31.516c0,1.887-0.168,3.44-0.498,4.676c-0.331,1.225-0.832,2.2-1.502,2.922
		c-0.686,0.723-1.54,1.228-2.58,1.511c-1.041,0.284-2.283,0.428-3.733,0.428H36.68c-1.452,0-2.646-0.262-3.59-0.779
		c-0.942-0.519-1.7-1.195-2.265-2.029s-0.963-1.781-1.182-2.836c-0.215-1.053-0.327-2.127-0.327-3.231v-8.306
		c0-1.134,0.197-2.156,0.589-3.067c0.388-0.917,0.92-1.694,1.582-2.342c0.66-0.64,1.44-1.14,2.341-1.483
		c0.894-0.348,1.845-0.52,2.852-0.52h9.536c0.848,0,1.706,0.158,2.573,0.472c0.868,0.313,1.63,0.778,2.313,1.393
		c0.675,0.612,1.228,1.354,1.652,2.221c0.424,0.863,0.638,1.862,0.638,2.995V31.516z M47.581,24.577c0-0.38-0.119-0.718-0.349-1.014
		c-0.234-0.301-0.546-0.552-0.926-0.758c-0.375-0.206-0.798-0.354-1.276-0.451c-0.47-0.091-0.94-0.14-1.409-0.14h-5.148
		c-0.404,0-0.817,0.038-1.228,0.117c-0.411,0.077-0.774,0.216-1.108,0.402c-0.328,0.186-0.606,0.438-0.826,0.75
		c-0.221,0.319-0.335,0.697-0.335,1.136v7.553c0,0.632,0.137,1.149,0.404,1.56s0.606,0.731,1.013,0.971
		c0.414,0.236,0.853,0.392,1.326,0.467c0.471,0.082,0.91,0.12,1.321,0.12h4.341c1.137,0,2.122-0.265,2.952-0.804
		c0.834-0.533,1.248-1.207,1.248-2.026v-3.775V24.577z"/>
	<path fill="#0863A7" d="M91.225,31.984c0,0.476,0.125,0.908,0.377,1.299c0.247,0.396,0.591,0.738,1.018,1.039
		c0.422,0.299,0.935,0.534,1.531,0.707c0.596,0.174,1.229,0.261,1.891,0.261h11.23c0.316,0,0.476,0.155,0.476,0.477v4.813
		c0,0.313-0.159,0.474-0.476,0.474h-7.976c-2.641,0-4.855-0.222-6.63-0.658c-1.778-0.445-3.213-1.146-4.294-2.104
		c-1.094-0.963-1.864-2.176-2.315-3.658c-0.456-1.483-0.687-3.258-0.687-5.334c0-2.52,0.382-4.606,1.16-6.258
		c0.765-1.647,1.773-2.966,3.017-3.939c1.246-0.975,2.646-1.661,4.205-2.058c1.553-0.39,3.12-0.585,4.694-0.585
		c1.951,0,3.634,0.229,5.049,0.684c1.421,0.455,2.583,1.101,3.493,1.937c0.916,0.833,1.583,1.847,2.005,3.044
		c0.43,1.194,0.64,2.533,0.64,4.013v4.908c0,0.316-0.156,0.476-0.474,0.476H91.696C91.385,31.516,91.225,31.672,91.225,31.984z
		 M103.826,25.992c0.316,0,0.473-0.158,0.473-0.473c0-1.192-0.554-2.148-1.648-2.854c-1.101-0.71-2.649-1.061-4.631-1.061
		c-0.63,0-1.33,0.091-2.099,0.283c-0.77,0.187-1.514,0.444-2.218,0.777c-0.708,0.327-1.302,0.738-1.771,1.228
		c-0.473,0.486-0.708,1.03-0.708,1.627c0,0.313,0.16,0.473,0.472,0.473H103.826z"/>
	<path fill="#6DAD31" d="M126.299,40.578c0,0.313-0.16,0.474-0.472,0.474h-5.899c-0.316,0-0.477-0.16-0.477-0.474V13.811
		c0-0.313-0.158-0.473-0.473-0.473h-7.693c-0.311,0-0.469-0.155-0.469-0.473V7.675c0-0.313,0.158-0.471,0.469-0.471h23.177
		c0.313,0,0.472,0.158,0.472,0.471v5.191c0,0.317-0.158,0.473-0.472,0.473h-7.692c-0.314,0-0.471,0.159-0.471,0.473V40.578z"/>
	<path fill="#0863A7" d="M139.092,31.984c0,0.476,0.125,0.908,0.374,1.299c0.251,0.396,0.593,0.738,1.021,1.039
		c0.422,0.299,0.931,0.534,1.535,0.707c0.592,0.174,1.225,0.261,1.888,0.261h11.233c0.31,0,0.469,0.155,0.469,0.477v4.813
		c0,0.313-0.159,0.474-0.469,0.474h-7.982c-2.645,0-4.852-0.222-6.629-0.658c-1.779-0.445-3.215-1.146-4.295-2.104
		c-1.084-0.963-1.862-2.176-2.318-3.658c-0.449-1.483-0.68-3.258-0.68-5.334c0-2.52,0.386-4.606,1.158-6.258
		c0.767-1.647,1.773-2.966,3.019-3.939c1.244-0.975,2.644-1.661,4.203-2.058c1.555-0.39,3.124-0.585,4.692-0.585
		c1.953,0,3.635,0.229,5.051,0.684c1.418,0.455,2.582,1.101,3.492,1.937c0.912,0.833,1.586,1.847,2.01,3.044
		c0.425,1.194,0.636,2.533,0.636,4.013v4.908c0,0.316-0.157,0.476-0.47,0.476h-17.469C139.25,31.516,139.092,31.672,139.092,31.984z
		 M151.689,25.992c0.322,0,0.479-0.158,0.479-0.473c0-1.192-0.553-2.148-1.653-2.854c-1.1-0.71-2.644-1.061-4.629-1.061
		c-0.629,0-1.33,0.091-2.098,0.283c-0.771,0.187-1.51,0.444-2.221,0.777c-0.707,0.327-1.299,0.738-1.769,1.228
		c-0.475,0.486-0.71,1.03-0.71,1.627c0,0.313,0.158,0.473,0.471,0.473H151.689z"/>
	<path fill="#0863A7" d="M180.35,35.29c0.313,0,0.476,0.155,0.476,0.477v4.813c0,0.313-0.163,0.474-0.476,0.474h-8.877
		c-1.732,0-3.271-0.308-4.623-0.923c-1.355-0.61-2.502-1.417-3.445-2.409c-0.943-0.99-1.672-2.093-2.172-3.304
		c-0.506-1.213-0.758-2.415-0.758-3.611v-3.965c0-1.601,0.229-3.039,0.686-4.318c0.455-1.276,1.167-2.361,2.123-3.257
		c0.962-0.896,2.197-1.587,3.707-2.076c1.511-0.487,3.308-0.73,5.388-0.73h7.972c0.313,0,0.477,0.158,0.477,0.472v4.812
		c0,0.316-0.163,0.478-0.477,0.478h-8.924c-1.822,0-3.188,0.55-4.084,1.652c-0.895,1.104-1.343,2.452-1.343,4.058v2.03
		c0,1.574,0.433,2.857,1.299,3.848c0.87,0.988,2.245,1.485,4.128,1.485h8.924V35.29z"/>
	<path fill="#0863A7" d="M198.119,23.136c-1.077-0.616-2.413-0.921-3.98-0.921c-0.535,0-1.072,0.021-1.607,0.069
		c-0.532,0.047-1.02,0.142-1.441,0.283c-0.423,0.145-0.777,0.352-1.063,0.637c-0.282,0.279-0.422,0.647-0.422,1.086v16.286
		c0,0.313-0.156,0.473-0.476,0.473h-4.813c-0.318,0-0.475-0.159-0.475-0.473v-4.813V35.67V7.675c0-0.313,0.155-0.471,0.475-0.471
		h4.813c0.317,0,0.476,0.158,0.476,0.471v8.782h8.213c0.979,0,1.931,0.181,2.854,0.54c0.927,0.364,1.744,0.869,2.452,1.515
		c0.711,0.644,1.281,1.388,1.729,2.242c0.436,0.852,0.662,1.748,0.662,2.688v17.137c0,0.313-0.158,0.474-0.475,0.474h-4.813
		c-0.318,0-0.48-0.16-0.48-0.474V26.132C199.748,24.749,199.208,23.75,198.119,23.136z"/>
	<path fill="#6DAD31" d="M219.182,35.569h2.5c0.353,1.688,0.797,2.695,1.275,2.695c0.48,0,0.92-1.008,1.271-2.695h0.748
		c0,0,0.133,1.138,0.402,1.987c0,0,7.703-0.144,9.314-0.427c1.613-0.286,1.891-3.264,2.021-8.803
		c0.136-5.538,0.406-16.756-1.887-17.042c-2.339-0.287-9.718-0.279-9.718-0.279l-0.535,2.413l-0.316-0.01
		c-0.363-1.772-0.814-2.831-1.302-2.831c-0.481,0-0.927,1.031-1.292,2.761l-2.482-0.063c0,0-8.356-12.458-19.673-13.205
		c0,0-27.717-0.16-42.009,0c-14.287,0.161-18.738,5.066-18.738,5.066s8.389-2.45,18.738-2.726
		c10.902-0.292,39.296-1.458,46.163,1.417c3.282,1.377,14.124,8.49,14.771,14.508c0.498,4.572,1.31,12.38-2.867,17.249
		c-2.367,2.768-8.076,10.479-16.978,12.661c-4.528,1.107-8.696,1.745-21.743,2.617c0,0,12.493,0.582,16.98,0
		C197.326,50.41,206.253,51.617,219.182,35.569z"/>
	<g>
		<path fill="#6DAD31" d="M4.974,44.748c0.565,0,1.048,0.059,1.449,0.175c0.397,0.116,0.722,0.266,0.974,0.453
			c0.247,0.188,0.432,0.401,0.544,0.645c0.119,0.24,0.172,0.494,0.172,0.752c0,0.254-0.053,0.502-0.172,0.748
			c-0.112,0.242-0.297,0.461-0.544,0.646c-0.252,0.187-0.576,0.343-0.974,0.455c-0.401,0.115-0.884,0.172-1.449,0.172H2.873v2.265
			H0.881v-6.31H4.974z M4.427,47.717c0.23,0,0.448-0.012,0.658-0.034c0.212-0.024,0.399-0.069,0.561-0.144
			c0.158-0.062,0.291-0.156,0.392-0.283c0.097-0.127,0.146-0.282,0.146-0.483s-0.049-0.362-0.146-0.486
			c-0.101-0.124-0.233-0.221-0.392-0.284c-0.161-0.068-0.349-0.118-0.561-0.141c-0.21-0.021-0.428-0.034-0.658-0.034H2.873v1.892
			h1.554V47.717z"/>
		<path fill="#6DAD31" d="M16.146,44.748v1.168h-4.789v1.351h4.396v1.075h-4.396v1.546h4.889v1.17H9.361v-6.31H16.146z"/>
		<path fill="#6DAD31" d="M16.889,45.916v-1.168h7.438v1.168h-2.726v5.142h-1.994v-5.142H16.889z"/>
		<path fill="#6DAD31" d="M33.794,44.748c0.404,0,0.776,0.047,1.1,0.138c0.328,0.092,0.605,0.218,0.845,0.379
			c0.231,0.156,0.408,0.342,0.529,0.547c0.125,0.213,0.188,0.438,0.188,0.678c0,0.373-0.115,0.694-0.339,0.961
			c-0.227,0.275-0.592,0.479-1.102,0.619v0.02c0.246,0.048,0.452,0.118,0.608,0.218c0.162,0.095,0.294,0.212,0.398,0.345
			c0.103,0.132,0.173,0.278,0.224,0.431c0.043,0.162,0.083,0.323,0.095,0.479c0.004,0.104,0.017,0.225,0.021,0.356
			c0.012,0.138,0.025,0.272,0.047,0.416c0.021,0.139,0.056,0.271,0.101,0.399c0.049,0.124,0.114,0.232,0.211,0.325h-1.997
			c-0.111-0.201-0.175-0.439-0.206-0.72c-0.024-0.276-0.062-0.539-0.11-0.793c-0.067-0.33-0.216-0.572-0.432-0.724
			c-0.22-0.152-0.582-0.229-1.085-0.229H30.9v2.465h-1.997v-6.31L33.794,44.748L33.794,44.748z M33.083,47.602
			c0.456,0,0.798-0.068,1.029-0.215c0.232-0.142,0.343-0.371,0.343-0.687c0-0.307-0.11-0.524-0.343-0.666
			c-0.231-0.139-0.573-0.209-1.029-0.209h-2.184v1.775L33.083,47.602L33.083,47.602z"/>
		<path fill="#6DAD31" d="M39.821,49.959c0.276,0.184,0.657,0.273,1.167,0.273c0.368,0,0.683-0.063,0.942-0.187
			c0.263-0.131,0.425-0.264,0.486-0.403h1.589c-0.258,0.546-0.646,0.938-1.169,1.174c-0.526,0.232-1.165,0.35-1.911,0.35
			c-0.512,0-0.982-0.055-1.394-0.168c-0.418-0.119-0.77-0.281-1.057-0.492c-0.289-0.211-0.516-0.463-0.663-0.758
			c-0.167-0.295-0.239-0.62-0.239-0.971c0-0.344,0.08-0.658,0.241-0.955c0.16-0.295,0.388-0.549,0.688-0.766
			c0.29-0.216,0.646-0.379,1.058-0.509c0.41-0.117,0.866-0.186,1.366-0.186c0.56,0,1.049,0.079,1.464,0.226
			c0.415,0.15,0.758,0.354,1.027,0.609c0.262,0.251,0.455,0.536,0.578,0.862c0.116,0.324,0.156,0.662,0.126,1.016h-4.743
			C39.405,49.482,39.552,49.773,39.821,49.959z M41.866,47.557c-0.223-0.166-0.551-0.244-0.986-0.244
			c-0.295,0-0.534,0.035-0.722,0.1c-0.189,0.067-0.344,0.15-0.456,0.256c-0.117,0.097-0.194,0.203-0.243,0.313
			c-0.044,0.113-0.074,0.212-0.081,0.301h2.937C42.226,47.965,42.079,47.725,41.866,47.557z"/>
		<path fill="#6DAD31" d="M48.329,47.313c-0.291,0-0.53,0.043-0.725,0.135c-0.196,0.09-0.355,0.208-0.479,0.352
			c-0.12,0.147-0.207,0.306-0.258,0.479c-0.049,0.172-0.083,0.344-0.083,0.516c0,0.165,0.034,0.335,0.083,0.507
			c0.051,0.17,0.133,0.323,0.246,0.459c0.112,0.143,0.267,0.257,0.462,0.344c0.194,0.087,0.432,0.131,0.71,0.131
			c0.436,0,0.769-0.081,1.004-0.252c0.225-0.166,0.376-0.389,0.434-0.676h1.746c-0.12,0.608-0.459,1.071-1.021,1.389
			c-0.561,0.316-1.276,0.473-2.146,0.473c-0.495,0-0.945-0.055-1.355-0.168c-0.407-0.119-0.76-0.271-1.049-0.481
			c-0.288-0.205-0.515-0.447-0.675-0.736c-0.157-0.283-0.237-0.602-0.237-0.941c0-0.356,0.069-0.684,0.216-0.987
			c0.15-0.299,0.37-0.563,0.659-0.781c0.291-0.227,0.64-0.391,1.058-0.52c0.409-0.118,0.889-0.187,1.422-0.187
			c0.387,0,0.763,0.035,1.121,0.109c0.364,0.065,0.686,0.178,0.967,0.319c0.282,0.146,0.519,0.324,0.695,0.54
			c0.174,0.214,0.28,0.471,0.305,0.762h-1.771C49.544,47.572,49.1,47.313,48.329,47.313z"/>
		<path fill="#6DAD31" d="M54.915,52.416c-0.349,0.16-0.839,0.236-1.449,0.236c-0.191,0-0.371-0.004-0.557-0.012
			c-0.183-0.015-0.364-0.021-0.552-0.029v-1.035c0.168,0.008,0.343,0.021,0.52,0.031c0.184,0.016,0.36,0.016,0.536,0.012
			c0.24-0.014,0.413-0.082,0.528-0.195c0.107-0.11,0.171-0.232,0.171-0.366c0-0.101-0.029-0.195-0.082-0.283l-2.297-4.285h1.92
			l1.489,3.129h0.024l1.437-3.129h1.866l-2.742,5.131C55.533,51.99,55.26,52.255,54.915,52.416z"/>
		<path fill="#6DAD31" d="M62.223,47.313c-0.286,0-0.53,0.043-0.719,0.135c-0.202,0.09-0.358,0.208-0.485,0.352
			c-0.12,0.147-0.205,0.306-0.259,0.479c-0.051,0.172-0.073,0.344-0.073,0.516c0,0.165,0.022,0.335,0.073,0.507
			c0.054,0.17,0.135,0.323,0.254,0.459c0.11,0.143,0.269,0.257,0.465,0.344c0.19,0.087,0.428,0.131,0.707,0.131
			c0.433,0,0.765-0.081,0.998-0.252c0.233-0.166,0.377-0.389,0.439-0.676h1.739c-0.118,0.608-0.452,1.071-1.019,1.389
			c-0.556,0.316-1.276,0.473-2.147,0.473c-0.494,0-0.941-0.055-1.35-0.168c-0.413-0.119-0.762-0.271-1.052-0.481
			c-0.288-0.205-0.514-0.447-0.676-0.736c-0.158-0.283-0.241-0.602-0.241-0.941c0-0.356,0.075-0.684,0.226-0.987
			c0.149-0.299,0.366-0.563,0.653-0.781c0.288-0.227,0.643-0.391,1.057-0.52c0.416-0.118,0.885-0.187,1.419-0.187
			c0.395,0,0.766,0.035,1.128,0.109c0.364,0.065,0.682,0.178,0.964,0.319c0.288,0.146,0.521,0.324,0.694,0.54
			c0.182,0.214,0.281,0.471,0.305,0.762h-1.765C63.441,47.572,62.994,47.313,62.223,47.313z"/>
		<path fill="#6DAD31" d="M68.237,44.748v6.31h-1.805v-6.31H68.237z"/>
		<path fill="#6DAD31" d="M69.712,45.781v-1.033h1.809v1.033H69.712z M71.521,46.488v4.568h-1.809v-4.568H71.521z"/>
		<path fill="#6DAD31" d="M74.657,46.488v0.633h0.042c0.222-0.26,0.521-0.451,0.889-0.572c0.363-0.126,0.738-0.186,1.118-0.186
			c0.481,0,0.878,0.05,1.187,0.139c0.313,0.094,0.555,0.219,0.735,0.378c0.174,0.163,0.3,0.362,0.373,0.595
			c0.068,0.23,0.109,0.49,0.109,0.773v2.81h-1.807v-2.582c0-0.373-0.083-0.656-0.255-0.842c-0.171-0.187-0.468-0.277-0.903-0.277
			c-0.492,0-0.848,0.101-1.072,0.302c-0.213,0.204-0.327,0.537-0.327,1.004v2.396h-1.805V46.49h1.716V46.488z"/>
		<path fill="#6DAD31" d="M86.687,51.391c-0.067,0.231-0.222,0.457-0.456,0.66c-0.239,0.199-0.581,0.377-1.032,0.514
			c-0.455,0.14-1.053,0.211-1.804,0.211c-0.326,0-0.65-0.023-0.985-0.085c-0.334-0.054-0.646-0.143-0.918-0.259
			c-0.273-0.119-0.504-0.269-0.687-0.453c-0.187-0.188-0.285-0.412-0.312-0.666h1.796c0.077,0.233,0.253,0.397,0.492,0.488
			c0.246,0.094,0.531,0.138,0.854,0.138c0.507,0,0.883-0.106,1.108-0.319c0.235-0.215,0.35-0.479,0.338-0.803v-0.603H85.06
			c-0.194,0.247-0.475,0.418-0.833,0.534s-0.742,0.172-1.138,0.172c-0.495,0-0.918-0.06-1.272-0.184
			c-0.357-0.116-0.647-0.279-0.88-0.495c-0.229-0.205-0.396-0.449-0.499-0.729c-0.105-0.277-0.159-0.577-0.159-0.884
			c0-0.297,0.063-0.58,0.183-0.853c0.124-0.274,0.302-0.521,0.54-0.729c0.238-0.209,0.534-0.37,0.884-0.5
			c0.351-0.117,0.757-0.186,1.214-0.186c0.431,0,0.813,0.06,1.143,0.168c0.321,0.115,0.597,0.301,0.818,0.564h0.021v-0.607h1.72
			v4.274C86.801,50.945,86.765,51.154,86.687,51.391z M84.22,49.868c0.19-0.069,0.357-0.158,0.483-0.276
			c0.127-0.12,0.224-0.256,0.283-0.405c0.067-0.152,0.095-0.308,0.095-0.47c0-0.189-0.021-0.366-0.078-0.534
			c-0.046-0.172-0.13-0.32-0.254-0.447c-0.112-0.129-0.271-0.232-0.465-0.312c-0.196-0.073-0.439-0.11-0.737-0.11
			c-0.255,0-0.47,0.037-0.66,0.104c-0.181,0.071-0.335,0.168-0.455,0.289c-0.121,0.119-0.208,0.256-0.267,0.414
			c-0.056,0.156-0.082,0.318-0.082,0.492c0,0.16,0.026,0.323,0.073,0.488c0.043,0.161,0.123,0.308,0.241,0.436
			c0.111,0.129,0.261,0.238,0.448,0.317c0.188,0.083,0.417,0.124,0.701,0.124C83.799,49.977,84.027,49.941,84.22,49.868z"/>
		<path fill="#6DAD31" d="M98.764,44.748v1.168h-4.792v1.351h4.396v1.075h-4.396v1.546h4.895v1.17h-6.891v-6.31H98.764z"/>
		<path fill="#6DAD31" d="M104.627,52.652v-2.17h-0.025c-0.214,0.243-0.515,0.421-0.891,0.527c-0.384,0.106-0.777,0.155-1.185,0.155
			c-0.306,0-0.62-0.035-0.944-0.116c-0.327-0.076-0.627-0.212-0.9-0.396c-0.267-0.188-0.493-0.428-0.671-0.734
			c-0.177-0.301-0.266-0.676-0.266-1.114c0-0.31,0.056-0.615,0.173-0.91c0.123-0.295,0.31-0.555,0.552-0.783
			c0.242-0.224,0.55-0.402,0.92-0.543c0.364-0.134,0.8-0.203,1.303-0.203c0.405,0,0.79,0.06,1.151,0.166
			c0.359,0.105,0.64,0.289,0.845,0.545h0.025v-0.586h1.719v6.164L104.627,52.652L104.627,52.652z M101.627,49.313
			c0.044,0.174,0.137,0.326,0.261,0.467c0.123,0.137,0.281,0.25,0.478,0.328c0.203,0.086,0.449,0.125,0.746,0.125
			c0.299,0,0.545-0.039,0.748-0.119c0.199-0.078,0.354-0.184,0.479-0.318c0.126-0.131,0.21-0.284,0.27-0.459
			c0.055-0.174,0.081-0.353,0.081-0.543c0-0.176-0.026-0.352-0.081-0.524c-0.06-0.181-0.141-0.339-0.261-0.478
			c-0.118-0.146-0.278-0.258-0.471-0.354c-0.206-0.082-0.445-0.125-0.728-0.125c-0.3,0-0.544,0.041-0.751,0.123
			c-0.201,0.084-0.369,0.189-0.491,0.328c-0.132,0.14-0.22,0.297-0.273,0.468c-0.06,0.177-0.083,0.355-0.083,0.546
			C101.55,48.958,101.573,49.139,101.627,49.313z"/>
		<path fill="#6DAD31" d="M112.241,51.057v-0.642h-0.042c-0.224,0.269-0.522,0.457-0.885,0.578
			c-0.368,0.113-0.737,0.172-1.122,0.172c-0.482,0-0.88-0.037-1.193-0.133c-0.306-0.084-0.543-0.209-0.724-0.371
			c-0.182-0.162-0.308-0.357-0.377-0.592c-0.071-0.234-0.104-0.49-0.104-0.771v-2.811h1.803v2.58c0,0.372,0.085,0.657,0.251,0.842
			c0.171,0.187,0.475,0.278,0.907,0.278c0.494,0,0.849-0.104,1.065-0.302c0.223-0.208,0.328-0.539,0.328-1.007v-2.393h1.808v4.568
			h-1.715V51.057z"/>
		<path fill="#6DAD31" d="M115.378,45.781v-1.033h1.807v1.033H115.378z M117.185,46.488v4.568h-1.807v-4.568H117.185z"/>
		<path fill="#6DAD31" d="M120.326,46.488v0.586h0.025c0.219-0.248,0.5-0.428,0.836-0.543c0.346-0.108,0.719-0.168,1.123-0.168
			c0.516,0,0.961,0.069,1.336,0.203c0.371,0.141,0.681,0.319,0.926,0.541c0.252,0.222,0.43,0.481,0.543,0.783
			c0.121,0.295,0.182,0.606,0.182,0.931c0,0.307-0.061,0.596-0.182,0.885c-0.113,0.281-0.291,0.53-0.534,0.748
			c-0.241,0.22-0.545,0.388-0.901,0.522c-0.365,0.129-0.787,0.188-1.268,0.188c-0.409,0-0.785-0.055-1.129-0.168
			c-0.336-0.119-0.623-0.289-0.84-0.51h-0.026v2.164h-1.805v-6.164L120.326,46.488L120.326,46.488z M122.671,50.107
			c0.198-0.078,0.362-0.189,0.485-0.318c0.121-0.133,0.21-0.287,0.261-0.465c0.052-0.176,0.077-0.354,0.077-0.541
			c0-0.184-0.025-0.361-0.085-0.535c-0.054-0.18-0.146-0.335-0.274-0.472c-0.125-0.141-0.287-0.255-0.486-0.339
			c-0.198-0.084-0.443-0.125-0.73-0.125c-0.299,0-0.542,0.041-0.748,0.125c-0.193,0.084-0.359,0.195-0.479,0.331
			c-0.123,0.135-0.213,0.292-0.266,0.474c-0.048,0.172-0.072,0.355-0.072,0.541c0,0.188,0.024,0.365,0.082,0.541
			c0.053,0.178,0.146,0.332,0.268,0.465c0.126,0.129,0.283,0.24,0.486,0.318c0.207,0.086,0.451,0.125,0.74,0.125
			C122.223,50.232,122.473,50.193,122.671,50.107z"/>
		<path fill="#6DAD31" d="M128.13,46.488v0.619h0.028c0.236-0.237,0.525-0.42,0.859-0.547c0.332-0.13,0.719-0.197,1.149-0.197
			c0.412,0,0.797,0.06,1.138,0.168c0.346,0.115,0.604,0.311,0.784,0.59c0.19-0.199,0.462-0.369,0.793-0.525
			c0.335-0.152,0.731-0.231,1.187-0.231c0.347,0,0.67,0.031,0.969,0.089c0.294,0.063,0.552,0.157,0.766,0.283
			c0.205,0.133,0.379,0.297,0.493,0.509c0.119,0.21,0.179,0.461,0.179,0.754v3.06h-1.812V48.47c0-0.156-0.003-0.3-0.021-0.437
			c-0.015-0.134-0.065-0.248-0.141-0.352c-0.076-0.104-0.188-0.181-0.334-0.244c-0.148-0.053-0.352-0.082-0.607-0.082
			c-0.252,0-0.457,0.031-0.619,0.101c-0.154,0.065-0.279,0.156-0.365,0.266c-0.09,0.112-0.146,0.233-0.178,0.368
			c-0.03,0.143-0.045,0.282-0.045,0.42v2.548h-1.808v-2.563c0-0.136,0-0.269-0.012-0.404c-0.005-0.131-0.043-0.252-0.108-0.364
			c-0.063-0.112-0.169-0.203-0.316-0.27c-0.147-0.068-0.365-0.101-0.654-0.101c-0.085,0-0.197,0.014-0.34,0.043
			c-0.139,0.022-0.271,0.071-0.403,0.141c-0.132,0.083-0.246,0.187-0.339,0.322c-0.096,0.137-0.139,0.322-0.139,0.545v2.65h-1.807
			v-4.568L128.13,46.488L128.13,46.488z"/>
		<path fill="#6DAD31" d="M139.83,49.959c0.273,0.184,0.662,0.273,1.168,0.273c0.367,0,0.682-0.063,0.943-0.187
			c0.265-0.131,0.422-0.264,0.481-0.403h1.589c-0.252,0.546-0.646,0.938-1.166,1.174c-0.527,0.232-1.166,0.35-1.908,0.35
			c-0.52,0-0.979-0.055-1.398-0.168c-0.418-0.119-0.771-0.281-1.061-0.492c-0.279-0.211-0.512-0.463-0.662-0.758
			c-0.157-0.295-0.234-0.62-0.234-0.971c0-0.344,0.077-0.658,0.236-0.955c0.162-0.295,0.397-0.549,0.688-0.766
			c0.296-0.216,0.652-0.379,1.063-0.509c0.408-0.117,0.869-0.186,1.367-0.186c0.556,0,1.049,0.079,1.459,0.226
			c0.412,0.15,0.76,0.354,1.023,0.609c0.271,0.251,0.461,0.536,0.58,0.862c0.116,0.324,0.16,0.662,0.125,1.016h-4.741
			C139.408,49.482,139.555,49.773,139.83,49.959z M141.869,47.557c-0.213-0.166-0.543-0.244-0.982-0.244
			c-0.291,0-0.529,0.035-0.719,0.1c-0.193,0.067-0.344,0.15-0.455,0.256c-0.119,0.097-0.199,0.203-0.247,0.313
			c-0.046,0.113-0.071,0.212-0.081,0.301h2.936C142.238,47.965,142.086,47.725,141.869,47.557z"/>
		<path fill="#6DAD31" d="M146.911,46.488v0.633h0.039c0.228-0.26,0.524-0.451,0.892-0.572c0.359-0.126,0.737-0.186,1.115-0.186
			c0.484,0,0.884,0.05,1.189,0.139c0.312,0.094,0.555,0.219,0.728,0.378c0.181,0.163,0.304,0.362,0.377,0.595
			c0.071,0.23,0.11,0.49,0.11,0.773v2.81h-1.801v-2.582c0-0.373-0.09-0.656-0.258-0.842c-0.168-0.187-0.472-0.277-0.9-0.277
			c-0.494,0-0.854,0.101-1.065,0.302c-0.228,0.204-0.332,0.537-0.332,1.004v2.396h-1.813V46.49h1.72V46.488z"/>
		<path fill="#6DAD31" d="M156.346,46.488v0.841h-1.324v2.263c0,0.207,0.051,0.351,0.156,0.424c0.102,0.068,0.307,0.103,0.61,0.103
			c0.103,0,0.196,0,0.29-0.01c0.092-0.002,0.181-0.012,0.268-0.023v0.974c-0.154,0.012-0.322,0.026-0.511,0.032
			c-0.187,0.007-0.369,0.011-0.542,0.011c-0.279,0-0.547-0.013-0.798-0.037c-0.255-0.033-0.468-0.08-0.663-0.159
			c-0.189-0.075-0.34-0.187-0.449-0.327c-0.111-0.14-0.167-0.324-0.167-0.558v-2.689h-1.089V46.49h1.089v-1.37h1.806v1.37h1.324
			V46.488z"/>
	</g>
</g>
<g>
	<path d="M253.006,3.893h-2.607v7.869h-1.412V3.893h-2.602V2.686h6.621V3.893z"/>
	<path d="M262.598,11.762V5.903c0-0.512,0.027-1.119,0.082-1.822h-0.035c-0.117,0.504-0.209,0.834-0.275,0.99l-2.76,6.691h-0.92
		l-2.771-6.639c-0.07-0.168-0.162-0.516-0.275-1.043h-0.035c0.039,0.547,0.059,1.207,0.059,1.98v5.701h-1.307V2.686h1.963
		l2.455,5.994c0.191,0.469,0.318,0.857,0.381,1.166h0.041c0.074-0.246,0.211-0.641,0.41-1.184l2.496-5.977h1.887v9.076H262.598z"/>
</g>
</svg>
