<?xml version="1.0" encoding="utf-8"?>
<!-- Generator: Adobe Illustrator 16.0.0, SVG Export Plug-In . SVG Version: 6.00 Build 0)  -->
<!DOCTYPE svg PUBLIC "-//W3C//DTD SVG 1.1//EN" "http://www.w3.org/Graphics/SVG/1.1/DTD/svg11.dtd">
<svg version="1.1" id="圖層_1" xmlns="http://www.w3.org/2000/svg" xmlns:xlink="http://www.w3.org/1999/xlink" x="0px" y="0px"
	 width="146.463px" height="182.952px" viewBox="0 0 146.463 182.952" enable-background="new 0 0 146.463 182.952"
	 xml:space="preserve">
<g>
	<g>
		<g>
			<path fill-rule="evenodd" clip-rule="evenodd" fill="#231815" d="M41.012,0H0v41.006h41.012V0z M35.15,35.15H5.857V5.857H35.15
				V35.15z M64.441,58.588V46.863h11.721V35.15h-5.861v5.855h-5.859V35.15H58.59v11.713h-5.863V29.287h11.715v5.863h5.859V23.43
				h-5.859v-5.855h11.721v5.855h5.855v17.576h5.865V17.574h-5.865V5.857h5.865V0H64.441v5.857h5.859v5.859h-5.859V5.857H52.727V0
				h-5.854v11.717H58.59V23.43H46.873v35.158H29.291v-5.863h-5.854v5.863H11.715v5.852h41.012v-5.852H64.441z M105.451,0v41.006
				h41.012V0H105.451z M140.607,35.15h-29.299V5.857h29.299V35.15z M99.594,5.857h-5.857v5.859h5.857V5.857z M29.291,11.717H11.715
				v17.57h17.576V11.717z M93.736,11.717h-5.854v5.857h5.854V11.717z M134.744,11.717h-17.578v17.57h17.578V11.717z M99.594,23.43
				v-5.855h-5.857v5.855H99.594z M128.889,52.725h-5.861v11.715h-11.719v-5.852h5.857v-5.863h5.861v-5.861H99.594V35.15h-5.857
				v5.855h-5.854v5.857h5.854v5.861h5.857v5.863h-5.857v-5.863h-5.854v11.715h17.568v23.43h11.715V70.301h11.723v-5.861h5.855
				v-5.852h-5.855V52.725z M17.574,52.725v-5.861H0v11.725h11.715v-5.863H17.574z M41.012,46.863H29.291v5.861h11.721V46.863z
				 M134.744,58.588h5.863v5.852h5.855V46.863h-11.719V58.588z M82.018,52.725h-5.855v5.863h5.855V52.725z M70.301,64.439v-5.852
				h-5.859v5.852H70.301z M0,64.439V76.15h5.857V64.439H0z M58.59,82.014V64.439h-5.863V76.15h-5.854v-5.85H35.15v5.85h5.861v5.863
				H35.15V76.15H23.438v-5.85H11.715v5.85h5.859v5.863h-5.859V76.15H5.857v5.863H0v5.855h17.574v5.863H0v5.861h29.291v-5.861h-5.854
				v-5.863h41.004v-5.855H58.59z M82.018,70.301h5.865v-5.861h-5.865V70.301z M70.301,99.594h5.861V87.869h5.855v-5.855h-5.855
				V70.301H64.441v5.85h5.859v11.719h-5.859v5.863h5.859V99.594z M99.594,93.732h-5.857V82.014h5.857V70.301h-5.857v5.85H82.018
				v5.863h5.865v5.855h-5.865v5.863h5.865v5.861h5.854v11.721h-5.854v5.855h-5.865v5.855h5.865v5.855h5.854v-5.855h5.857v5.855
				h5.857v-5.855h11.715v11.713h-5.857v5.857h11.719v-11.715h11.717v5.857h11.719v-5.857h-5.855v-17.566h-5.863v11.711h-5.855
				v-5.855h-5.861v-5.855h5.861v-5.863h-5.861V93.732h-17.576v-5.863h-5.857V93.732z M117.166,99.594v17.576H99.594V99.594H117.166z
				 M140.607,76.15h-5.863v5.863h5.863v5.855h5.855V70.301h-5.855V76.15z M123.027,87.869h11.717v-5.855h-11.717V87.869z
				 M35.15,93.732v5.861h11.723v-5.861H35.15z M70.301,117.17h5.861v-5.855h-5.861v-5.863h-5.859V93.732H52.727v5.861h5.863v5.857
				h-5.863v5.863h-5.854v5.855h5.854v11.711h5.863v-5.855h5.852v5.855H58.59v17.576h11.711v-5.861h-5.859v-5.857h5.859v5.857h5.861
				v-11.715h5.855v-5.855H70.301V117.17z M64.441,117.17H58.59v-5.855h5.852V117.17z M140.607,93.732h-5.863v5.861h5.863V93.732z
				 M46.873,99.594v5.857h5.854v-5.857H46.873z M134.744,99.594h-5.855v5.857h5.855V99.594z M146.463,111.314V99.594h-5.855v11.721
				H146.463z M0,146.457h41.012v-41.006H0V146.457z M5.857,111.314H35.15v29.281H5.857V111.314z M82.018,105.451h-5.855v5.863h5.855
				V105.451z M111.309,105.451h-5.857v5.863h5.857V105.451z M11.715,134.738h17.576V117.17H11.715V134.738z M46.873,146.457h5.854
				v-17.576h-5.854V146.457z M105.451,134.738h-5.857v-5.857h-5.857v17.576h17.572v-5.861h-5.857V134.738z M128.889,146.457v-5.861
				h-5.861v5.861H128.889z M140.607,146.457h5.855v-5.861h-5.855V146.457z"/>
		</g>
	</g>
	<g>
		<path fill-rule="evenodd" clip-rule="evenodd" fill="#595758" d="M62.551,153.426c0,9.58,0,19.16,0,28.721
			c-1.865,0-4.299,0-6.184,0c0-8.688,0-19.27,0-28.721C58.451,153.426,60.504,153.426,62.551,153.426z"/>
		<path fill-rule="evenodd" clip-rule="evenodd" fill="#595758" d="M140.258,153.426c2.059,0,4.117,0,6.182,0
			c-0.045,9.277,0.064,21.24,0,28.643c-1.311,0-4.875,0-6.182,0c0-1.127,0-1.738,0-2.732c-1.939,1.748-3.385,2.967-6.576,3.217
			c-3.621,0.279-6.578-0.971-8.504-2.965c-2.855-2.871-3.4-9.369-0.748-13.018c2.174-2.984,5.404-5.037,9.379-4.84
			c2.096,0.104,4.289,0.834,6.449,2.389C140.258,160.563,140.258,157.006,140.258,153.426z M140.258,171.482
			c-0.043-1.137-0.404-3.129-1.4-4.199c-1.072-1.188-2.549-1.543-3.053-1.65c-2.469-0.443-4.25,0.436-5.363,1.924
			c-0.979,1.316-1.426,3.104-1.35,4.879c0.068,1.924,0.76,3.771,2.07,4.951c0.9,0.816,4.848,1.693,7.131,0.039
			C140.166,176.064,140.295,172.461,140.258,171.482z"/>
		<path fill-rule="evenodd" clip-rule="evenodd" fill="#595758" d="M52.986,155.277c-0.092,1.047-0.34,2.215-0.828,3.906
			c-2.564-0.73-7.666-1.15-10.428-0.684c-10.209,1.676-12.461,17.094-0.777,19.309c2.568,0.492,8.641,0.359,11.146,0
			c0.307,1.299,0.404,2.348,0.412,3.896c-14.965,3.236-23.768-1.85-25.699-10.549c-1.422-6.348,1.795-14.215,11.344-16.402
			C42.375,153.777,48.637,153.426,52.986,155.277z"/>
		<path fill-rule="evenodd" clip-rule="evenodd" fill="#595758" d="M112.178,162.246c2.482,0,4.127,0,6.008,0
			c0,6.727,0,13.701,0,20.451c-1.98,0-6.008-0.033-6.008-0.033s0-1.758,0-2.709c-4.42,4.586-11.43,3.455-14.293-0.338
			c-2.041-2.66-1.51-10.744-1.51-17.371c2.064,0,4.131,0,6.182,0c0,2.221,0.023,5.635,0,8.119c-0.018,3.859-0.074,7.061,2.449,8.238
			c1.035,0.422,2.701,0.582,4.023,0.24c1.436-0.361,3.148-1.523,3.148-2.932C112.178,172.816,112.178,165.189,112.178,162.246z"/>
		<path fill-rule="evenodd" clip-rule="evenodd" fill="#595758" d="M77.057,161.91c7.127-0.859,11.93,1.824,13.41,4.492
			c2.688,4.719,2.043,11.309-2.762,14.166c-7.5,4.426-19.961,2.096-20.807-6.732C66.197,166.693,70.74,162.662,77.057,161.91z
			 M79.672,178.777c7.387-0.105,8.459-14.439-0.998-13.012C70.277,167.018,72.555,178.883,79.672,178.777z"/>
		<path fill="#6DA32F" d="M15.887,161.26c0,0,0,11.557,0,14.652c0,1.408-1.727,2.57-3.146,2.932
			c-1.344,0.342-2.979,0.182-4.041-0.24c-2.529-1.178-2.449-4.379-2.439-8.238c0.018-1.957,0-9.146,0-9.146l-6.207-0.012
			c0,0-0.074,8.293-0.041,12.393c0.021,2.273,0.021,4.035,1.576,6.018c2.924,3.734,9.871,4.924,14.299,0.338
			c0,0.951,0,2.709,0,2.709s4.119,0,6.086,0c0-6.77,0-21.414,0-21.414L15.887,161.26z"/>
	</g>
</g>
</svg>
