<?xml version="1.0" encoding="utf-8"?>
<!-- Generator: Adobe Illustrator 16.0.0, SVG Export Plug-In . SVG Version: 6.00 Build 0)  -->
<!DOCTYPE svg PUBLIC "-//W3C//DTD SVG 1.1//EN" "http://www.w3.org/Graphics/SVG/1.1/DTD/svg11.dtd">
<svg version="1.1" id="圖層_1" xmlns="http://www.w3.org/2000/svg" xmlns:xlink="http://www.w3.org/1999/xlink" x="0px" y="0px"
	 width="35.165px" height="35.181px" viewBox="0 0 35.165 35.181" enable-background="new 0 0 35.165 35.181" xml:space="preserve">
<path fill="#6DAD31" d="M32.914,8.985c-0.47-0.833-1.007-1.63-1.602-2.373c-0.176-0.219-0.357-0.434-0.569-0.675
	c-0.178-0.2-0.358-0.396-0.599-0.643c-0.18-0.182-0.358-0.359-0.536-0.524L27.782,3.27l-0.326,0.458l0.223-0.533l-1.758-1.089
	c-0.229-0.124-0.461-0.243-0.75-0.383c-0.241-0.117-0.486-0.227-0.772-0.35c-0.251-0.105-0.509-0.207-0.791-0.312
	c-0.265-0.096-0.528-0.187-0.812-0.275c-0.271-0.084-0.546-0.161-0.829-0.234l-0.42-0.104c-0.28-0.064-0.563-0.122-0.864-0.177
	c-0.278-0.049-0.559-0.092-0.884-0.135c-0.274-0.033-0.552-0.062-0.896-0.089c-0.273-0.021-0.547-0.034-0.913-0.045L17.582,0
	l-0.497,0.006c-0.277,0.009-0.551,0.022-0.886,0.047c-0.28,0.023-0.56,0.051-0.874,0.09c-0.283,0.037-0.564,0.08-0.863,0.133
	c-0.284,0.052-0.563,0.109-0.845,0.173l-0.423,0.104c-0.002,0-0.002,0-0.005,0l-0.053,0.015c-0.258,0.067-0.516,0.141-0.78,0.224
	c-0.27,0.083-0.534,0.174-0.824,0.28c-0.258,0.095-0.514,0.196-0.804,0.318c-0.25,0.106-0.493,0.216-0.791,0.359
	c-0.233,0.114-0.464,0.233-0.77,0.397L7.487,3.196l0.326,0.459L7.383,3.27L5.565,4.759C5.381,4.934,5.197,5.111,4.969,5.349
	C4.781,5.54,4.6,5.737,4.396,5.967C4.208,6.178,4.028,6.393,3.849,6.616C3.26,7.354,2.719,8.152,2.246,8.993
	c-1.358,2.415-2.129,5.154-2.234,7.937L0,17.597c0,3.008,0.776,5.978,2.25,8.6c0.469,0.832,1.01,1.629,1.604,2.371
	c0.175,0.221,0.354,0.436,0.569,0.676c0.177,0.201,0.356,0.396,0.599,0.645c0.176,0.182,0.359,0.358,0.536,0.523l1.432,1.211
	l0.338-0.452l-0.21,0.547l0.266,0.194l0.327-0.459l-0.223,0.531l1.756,1.091c0.23,0.123,0.461,0.241,0.752,0.383
	c0.24,0.116,0.483,0.228,0.772,0.349c0.251,0.106,0.507,0.207,0.792,0.311c0.263,0.097,0.527,0.188,0.811,0.275
	c0.251,0.078,0.506,0.152,0.764,0.22l0.485,0.12c0.277,0.063,0.559,0.121,0.864,0.176c0.277,0.05,0.559,0.094,0.881,0.135
	c0.275,0.034,0.555,0.063,0.896,0.09c0.273,0.02,0.547,0.034,0.916,0.043l0.408,0.006l0.496-0.008
	c0.275-0.007,0.549-0.021,0.884-0.047c0.282-0.021,0.56-0.05,0.876-0.089c0.283-0.036,0.563-0.08,0.859-0.134
	c0.284-0.051,0.566-0.109,0.847-0.174l0.352-0.086l0.132-0.032c0.258-0.067,0.513-0.142,0.779-0.224
	c0.27-0.083,0.533-0.175,0.822-0.279c0.258-0.096,0.516-0.196,0.806-0.319c0.247-0.104,0.492-0.215,0.788-0.358
	c0.234-0.113,0.466-0.232,0.77-0.397l1.684-1.05l-0.327-0.459l0.432,0.385l0.266-0.192l-0.34-0.452l0.466,0.357l1.426-1.202
	c0.186-0.174,0.364-0.351,0.598-0.587c0.187-0.193,0.367-0.389,0.572-0.619c0.185-0.211,0.366-0.426,0.545-0.648
	c0.592-0.74,1.129-1.537,1.603-2.378c1.34-2.381,2.108-5.076,2.229-7.805l0.019-0.8C35.165,14.578,34.387,11.608,32.914,8.985z
	 M31.796,16.204h-4.659c-0.008-0.167-0.019-0.334-0.029-0.503c-0.009-0.203-0.024-0.404-0.039-0.606
	c-0.079-1.046-0.209-2.077-0.397-3.113l-0.03-0.174c-0.007-0.039-0.015-0.078-0.021-0.118c0.019-0.003,0.034-0.009,0.052-0.014
	c1.211-0.324,2.321-0.714,3.305-1.16C30.978,12.263,31.6,14.209,31.796,16.204z M31.796,18.976c-0.196,1.996-0.818,3.942-1.82,5.688
	c-0.986-0.446-2.094-0.835-3.301-1.159c-0.021-0.006-0.037-0.01-0.056-0.016c0.007-0.036,0.013-0.072,0.02-0.109l0.043-0.23
	c0.038-0.223,0.075-0.449,0.116-0.695c0.027-0.187,0.056-0.375,0.083-0.584c0.028-0.191,0.052-0.384,0.072-0.586l0.158-1.811
	c0.007-0.166,0.018-0.331,0.025-0.498H31.796z M28.245,27.07c-0.943,1.058-2.033,1.968-3.252,2.711l-0.261,0.172
	c-0.169,0.1-0.344,0.195-0.517,0.288c0.67-1.148,1.244-2.478,1.703-3.937C26.757,26.527,27.537,26.783,28.245,27.07z M22.22,9.57
	c-1.074,0.136-2.167,0.226-3.255,0.265V3.369c0.004,0,0.009,0,0.014,0c1.395,0.678,2.688,2.327,3.676,4.681l0.168,0.438
	c0.122,0.309,0.236,0.625,0.344,0.951C22.856,9.487,22.54,9.532,22.22,9.57z M24.371,16.204h-5.406v-3.447
	c1.705-0.058,3.359-0.222,4.931-0.489l0.002,0.017c0.161,0.823,0.283,1.665,0.369,2.498C24.315,15.25,24.351,15.724,24.371,16.204z
	 M24.993,5.399c1.219,0.743,2.309,1.655,3.252,2.713c-0.708,0.286-1.488,0.541-2.326,0.765c-0.459-1.46-1.033-2.788-1.703-3.937
	c0.147,0.078,0.295,0.159,0.443,0.243l-0.004,0.01L24.993,5.399z M23.166,25.742c-0.107,0.326-0.222,0.643-0.344,0.951l-0.168,0.438
	c-0.988,2.354-2.281,4.004-3.676,4.68c-0.005,0.002-0.01,0.002-0.014,0.002v-6.466c1.088,0.039,2.181,0.128,3.259,0.263
	C22.54,25.648,22.856,25.693,23.166,25.742z M18.965,22.424v-3.448h5.406c-0.021,0.479-0.056,0.953-0.104,1.418
	c-0.086,0.836-0.208,1.68-0.369,2.502l-0.002,0.018C22.324,22.646,20.67,22.482,18.965,22.424z M16.2,12.757v3.447h-5.408
	c0.023-0.479,0.059-0.952,0.104-1.416c0.086-0.838,0.209-1.68,0.371-2.503l0.002-0.017C12.842,12.536,14.494,12.7,16.2,12.757z
	 M11.996,9.439c0.111-0.327,0.227-0.642,0.344-0.951l0.173-0.438c0.986-2.354,2.279-4.003,3.675-4.681c0.005,0,0.011,0,0.013,0
	v6.466c-1.09-0.039-2.179-0.129-3.255-0.265l-0.075,0.563l0.072-0.56C12.623,9.532,12.309,9.489,11.996,9.439z M8.687,12.013
	l-0.135-0.089l-0.064,0.101l-0.021,0.12c-0.032,0.186-0.063,0.375-0.1,0.59l-0.311,2.972c-0.011,0.164-0.02,0.331-0.025,0.497H3.371
	c0.194-1.995,0.817-3.941,1.817-5.688c0.986,0.446,2.096,0.836,3.303,1.16c0.018,0.005,0.037,0.011,0.056,0.014
	c-0.014,0.063-0.024,0.129-0.038,0.2l0.555,0.098L8.687,12.013z M6.918,8.112c0.944-1.058,2.036-1.97,3.256-2.713l0.258-0.172
	c0.172-0.099,0.343-0.194,0.52-0.286c-0.67,1.148-1.247,2.477-1.704,3.937C8.405,8.653,7.628,8.398,6.918,8.112z M12.945,25.611
	c1.076-0.136,2.165-0.226,3.255-0.265v6.466c-0.002,0-0.008,0-0.013-0.002c-1.396-0.676-2.688-2.325-3.675-4.68l-0.173-0.438
	c-0.117-0.309-0.232-0.625-0.344-0.951c0.313-0.049,0.627-0.094,0.946-0.133l-0.067-0.557L12.945,25.611z M10.796,18.976H16.2v3.448
	c-1.706,0.058-3.358,0.222-4.93,0.489l-0.004-0.018c-0.162-0.822-0.285-1.664-0.367-2.498
	C10.852,19.931,10.815,19.457,10.796,18.976z M10.174,29.781c-1.22-0.743-2.312-1.653-3.256-2.711
	c0.71-0.287,1.487-0.543,2.329-0.766c0.457,1.459,1.034,2.788,1.704,3.937c-0.15-0.078-0.297-0.159-0.444-0.243l0.004-0.01
	L10.174,29.781z M8.546,23.49c-0.018,0.006-0.037,0.01-0.055,0.014c-1.207,0.326-2.316,0.715-3.303,1.161
	c-1-1.745-1.623-3.692-1.817-5.688H8.03c0.006,0.161,0.015,0.315,0.023,0.463l0.008,0.133c0.072,1.221,0.214,2.426,0.43,3.626
	l0.034,0.176C8.532,23.412,8.538,23.451,8.546,23.49z M28.458,4.503L28.458,4.503L28.458,4.503L28.458,4.503z M27.1,3.481
	L27.1,3.481L27.1,3.481L27.1,3.481z M28.646,30.519L28.646,30.519L28.646,30.519L28.646,30.519z"/>
</svg>
