<?xml version="1.0" encoding="utf-8"?>
<!-- Generator: Adobe Illustrator 23.1.0, SVG Export Plug-In . SVG Version: 6.00 Build 0)  -->
<svg version="1.1" id="圖層_1" xmlns="http://www.w3.org/2000/svg" xmlns:xlink="http://www.w3.org/1999/xlink" x="0px" y="0px"
	 viewBox="0 0 25 25" style="enable-background:new 0 0 25 25;" xml:space="preserve">
<style type="text/css">
	.st0{display:none;}
	.st1{display:inline;fill:#FFFFFF;}
	.st2{fill:#FFFFFF;}
	.st3{display:none;fill:#FFFFFF;}
</style>
<g id="mail" class="st0">
	<path class="st1" d="M23.87,3.65H1.18c-0.46,0-0.82,0.37-0.82,0.83v16.05c0,0.45,0.37,0.82,0.82,0.82h22.7
		c0.46,0,0.83-0.37,0.83-0.82V4.48C24.7,4.02,24.33,3.65,23.87,3.65L23.87,3.65z M23.05,19.7H2V5.3h21.04V19.7z M23.05,19.7"/>
	<path class="st1" d="M4.17,9.19l7.92,4.88c0.13,0.08,0.28,0.12,0.43,0.12c0.15,0,0.3-0.04,0.43-0.12l7.92-4.88
		c0.39-0.24,0.51-0.75,0.27-1.13c-0.24-0.39-0.75-0.51-1.13-0.27l-7.49,4.62L5.03,7.79c-0.39-0.24-0.9-0.12-1.14,0.27
		C3.65,8.44,3.78,8.95,4.17,9.19L4.17,9.19z M4.17,9.19"/>
</g>
<g id="qq" class="st0">
	<path class="st1" d="M22.97,13.84c0.46,0.94,0.79,2,0.71,3.26c-0.03,0.52-0.17,1.08-0.42,1.43c-0.13,0.18-0.32,0.34-0.52,0.34
		c-0.33,0.01-0.57-0.39-0.74-0.65c-0.2-0.3-0.36-0.6-0.51-0.9c-0.2,0.21-0.28,0.52-0.38,0.78c-0.32,0.82-0.78,1.54-1.35,2.12
		c0.54,0.31,1.04,0.53,1.51,0.9c0.29,0.23,0.67,0.55,0.57,1.09c-0.06,0.36-0.37,0.66-0.59,0.8c-1.54,0.99-4.75,0.85-6.64,0.23
		c-0.37-0.12-0.74-0.31-1.07-0.36c-0.13-0.02-0.34-0.01-0.48-0.02c-0.19-0.01-0.41-0.05-0.5-0.04c-0.11,0.01-0.21,0.13-0.34,0.21
		c-0.83,0.49-1.65,0.77-2.9,0.86c-1.39,0.1-2.79-0.02-3.87-0.36c-0.57-0.18-1.34-0.55-1.41-1.22C4,21.99,4.08,21.5,4.2,21.28
		c0.3-0.56,0.96-0.74,1.79-0.82c-0.03-0.14-0.23-0.24-0.37-0.34c-0.79-0.64-1.4-1.51-1.79-2.58C3.78,17.37,3.75,17.17,3.65,17
		c-0.19,0.13-0.21,0.38-0.32,0.57c-0.24,0.38-0.63,0.79-1.01,0.97c-0.14,0.07-0.35,0.15-0.52,0.11c-0.31-0.07-0.38-0.65-0.42-1.05
		c-0.13-1.48,0.3-2.68,0.78-3.61c0.62-1.19,1.5-1.96,2.38-2.69C4.3,10.64,4.59,9.87,4.91,9.45c0.01-0.31,0.04-0.6,0.15-0.88
		c0.06-0.15,0.2-0.25,0.23-0.38c0.03-0.14-0.01-0.29,0-0.46C5.43,5.88,6.57,4.2,7.6,3.17c0.61-0.61,1.15-1.04,2-1.43
		c0.78-0.35,1.76-0.56,2.83-0.67h1.39c3.41,0.32,5.58,1.84,6.6,4.56c0.16,0.42,0.27,0.85,0.38,1.3c0.11,0.45,0.1,1,0.25,1.47
		c0.09,0.28,0.33,0.54,0.46,0.84c0.26,0.61,0.35,1.46,0,2.06C22.02,12.03,22.53,12.92,22.97,13.84z M21.54,22.16
		c0.16-0.88-0.89-0.7-1.56-0.74c0.08-0.29,0.48-0.25,0.78-0.32c-0.32-0.38-0.78-0.61-1.28-0.63c-1.31,1.14-2.83,2.06-4.98,2.35
		c0.62,0.52,1.97,0.73,3.3,0.78c1.3,0.05,2.7-0.27,3.36-0.82C21.33,22.62,21.5,22.38,21.54,22.16z M20.4,17.79
		c0.48-1.79-0.24-3.34-0.97-4.4c-2.15,1.46-5.63,2.6-8.94,1.73c0.02,0.35,0.05,0.74,0.05,1.16c0,0.42,0.09,0.89,0.02,1.24
		c-0.05,0.28-0.29,0.56-0.51,0.65c-0.33,0.13-0.84,0.13-1.26,0.1c-0.76-0.06-1.4-0.42-1.6-1.01c-0.08-0.22-0.06-0.51-0.08-0.78
		c-0.05-0.87,0.04-1.69,0.15-2.46c-0.37-0.26-0.76-0.49-1.16-0.69c-0.62,0.63-0.91,2.17-0.88,3.24c0.01,0.27,0.07,0.67,0.13,0.97
		c0.18,0.84,0.65,1.63,1.16,2.23c0.53,0.62,1.12,1.11,1.85,1.54c1.46,0.87,3.48,1.3,5.42,1.32c0.7,0.01,1.38-0.13,2.02-0.36
		c0.65-0.23,1.27-0.59,1.83-0.95c0.55-0.36,1.13-0.85,1.51-1.28C19.64,19.48,20.17,18.66,20.4,17.79L20.4,17.79z M17.54,10.4
		c0.16-0.07,0.76-0.33,0.74-0.53c-0.01-0.1-0.32-0.29-0.48-0.38c-1.62-0.97-4.04-1.3-6.43-0.95c-0.91,0.13-1.74,0.35-2.5,0.71
		C8.64,9.35,7.96,9.7,7.98,9.95c0.01,0.1,0.16,0.22,0.25,0.27c0.37,0.22,0.97,0.35,1.39,0.44c-0.09-0.23-0.25-0.38-0.35-0.61
		c0.86,0.59,1.86,1.24,3.19,1.35c1.98,0.17,3.49-0.61,4.62-1.35c-0.11,0.27-0.48,0.39-0.55,0.63C16.96,10.67,17.22,10.55,17.54,10.4
		z M15.38,8.44c1.33-0.47,1.37-3.57,0.02-4.08c-0.12-0.05-0.36-0.05-0.44-0.04c-0.43,0.05-0.73,0.36-0.91,0.67
		c-0.6,1.02-0.4,3.13,0.74,3.47C15,8.52,15.24,8.49,15.38,8.44L15.38,8.44z M11.13,8.42c0.97,0.1,1.43-1.11,1.41-2.06
		c-0.02-0.98-0.48-2.01-1.28-2.02c-0.49,0-0.83,0.33-1.03,0.69C9.64,6.08,9.89,8.3,11.13,8.42z M8.61,23.7
		c1.3-0.06,2.64-0.25,3.13-0.97c-1.99-0.24-3.78-0.83-5.13-1.76c-0.17-0.11-0.45-0.37-0.59-0.4c-0.03,0-0.1,0.02-0.15,0.02
		c-0.46,0.01-0.77,0.19-1.13,0.4c-0.24,0.14-0.53,0.37-0.34,0.63c0.21-0.01,0.34-0.1,0.59-0.08c-0.24,0.21-0.67,0.38-0.76,0.74
		c-0.08,0.31,0.22,0.58,0.4,0.71C5.52,23.63,7.08,23.78,8.61,23.7L8.61,23.7z"/>
	<path class="st1" d="M19.22,16.79c0.02,0.22-0.28,0.27-0.4,0.13c-0.37,0.1-0.85,0-0.76-0.48c0.08-0.42,0.67-0.81,0.95-0.42
		c0.13,0.17,0.08,0.47,0.17,0.71c-0.09-0.06-0.15-0.15-0.27-0.19C18.51,16.67,19.08,17.19,19.22,16.79L19.22,16.79z M18.66,16.49
		c0.09-0.03,0.1,0.07,0.15,0.02c-0.08-0.68-0.67,0.22-0.23,0.25C18.58,16.64,18.59,16.53,18.66,16.49L18.66,16.49z M18.72,16.57
		c-0.1-0.02-0.07,0.09-0.08,0.17C18.71,16.72,18.68,16.61,18.72,16.57z"/>
	<path class="st1" d="M18.83,16.74c-0.08-0.03,0-0.13,0.08-0.12C18.9,16.68,18.85,16.69,18.83,16.74z M18,16.79
		c0.01,0.21-0.28,0.28-0.4,0.13c-0.34,0.07-0.76,0.04-0.78-0.32c-0.03-0.45,0.58-0.94,0.91-0.63c0.13,0.12,0.18,0.34,0.15,0.61
		c0.02,0.05,0.05,0.09,0.08,0.13c-0.13,0-0.15-0.18-0.29-0.17c-0.26,0.02-0.08,0.4,0.12,0.4C17.92,16.94,17.89,16.86,18,16.79
		L18,16.79z M17.44,16.49c0.07-0.02,0.1,0.07,0.15,0.02c-0.03-0.13-0.08-0.24-0.19-0.29c-0.16,0.05-0.34,0.56-0.04,0.52
		C17.34,16.65,17.36,16.53,17.44,16.49z M17.44,16.74c0.01-0.06,0.1-0.17,0.02-0.19C17.43,16.61,17.36,16.7,17.44,16.74z"/>
	<path class="st1" d="M17.67,16.61c0.05,0.04-0.06,0.08-0.05,0.13C17.52,16.7,17.64,16.64,17.67,16.61z M15.08,5.79
		c0.25,0.12,0.41,0.6,0.27,0.97c-0.41,0.06-0.24-0.53-0.47-0.57c-0.26-0.05-0.22,0.45-0.38,0.59c-0.3-0.04-0.22-0.4-0.15-0.61
		C14.42,5.91,14.74,5.63,15.08,5.79L15.08,5.79z M11.83,5.58c0.76-0.1,0.69,1.69,0.04,1.66C11.21,7.21,11.17,5.67,11.83,5.58z"/>
</g>
<g id="sk">
	<path class="st2" d="M23.4,14.95c0.17-0.75,0.26-1.53,0.26-2.33c0-5.99-4.93-10.85-11.01-10.85c-0.64,0-1.27,0.06-1.88,0.16
		C9.78,1.32,8.62,0.96,7.37,0.96c-3.53,0-6.38,2.82-6.38,6.29c0,1.16,0.32,2.25,0.88,3.18c-0.14,0.7-0.22,1.43-0.22,2.18
		c0,5.99,4.93,10.85,11,10.85c0.69,0,1.36-0.06,2.02-0.18c0.9,0.48,1.93,0.75,3.02,0.75c3.52,0,6.38-2.82,6.38-6.29
		C24.06,16.74,23.82,15.79,23.4,14.95L23.4,14.95z M18.29,17.81c-0.51,0.71-1.26,1.27-2.24,1.67c-0.96,0.4-2.12,0.6-3.44,0.6
		c-1.58,0-2.9-0.27-3.94-0.82c-0.74-0.39-1.35-0.93-1.81-1.59c-0.47-0.66-0.7-1.32-0.7-1.96c0-0.4,0.16-0.74,0.46-1.02
		c0.3-0.28,0.69-0.42,1.15-0.42c0.38,0,0.7,0.11,0.97,0.33c0.25,0.21,0.47,0.53,0.64,0.93c0.19,0.44,0.41,0.81,0.63,1.1
		c0.22,0.28,0.53,0.52,0.92,0.71c0.4,0.18,0.94,0.28,1.6,0.28c0.91,0,1.66-0.19,2.22-0.57c0.55-0.37,0.82-0.81,0.82-1.35
		c0-0.43-0.14-0.76-0.42-1.03c-0.3-0.28-0.7-0.49-1.17-0.64c-0.5-0.15-1.18-0.32-2.02-0.49c-1.14-0.24-2.11-0.52-2.88-0.85
		c-0.79-0.33-1.43-0.79-1.89-1.36c-0.47-0.58-0.71-1.32-0.71-2.18c0-0.82,0.25-1.56,0.75-2.19C7.7,6.32,8.42,5.82,9.35,5.49
		c0.91-0.33,2-0.5,3.23-0.5c0.98,0,1.85,0.11,2.57,0.33c0.73,0.22,1.34,0.52,1.82,0.89c0.49,0.38,0.85,0.77,1.07,1.19
		c0.23,0.42,0.34,0.83,0.34,1.24c0,0.39-0.15,0.74-0.45,1.05c-0.3,0.31-0.68,0.47-1.13,0.47c-0.41,0-0.73-0.1-0.95-0.29
		C15.64,9.68,15.42,9.4,15.19,9c-0.27-0.51-0.61-0.92-0.99-1.21c-0.37-0.28-0.99-0.42-1.84-0.42c-0.79,0-1.43,0.16-1.91,0.46
		C10,8.13,9.77,8.47,9.77,8.88c0,0.25,0.07,0.45,0.22,0.63c0.16,0.19,0.38,0.35,0.66,0.49c0.29,0.14,0.59,0.26,0.88,0.34
		c0.31,0.08,0.82,0.21,1.53,0.37c0.89,0.19,1.71,0.4,2.43,0.63c0.73,0.23,1.37,0.51,1.88,0.85c0.53,0.34,0.94,0.77,1.24,1.29
		c0.3,0.52,0.45,1.17,0.45,1.91C19.06,16.28,18.8,17.09,18.29,17.81L18.29,17.81z M18.29,17.81"/>
</g>
<path id="fb" class="st3" d="M14.81,24.39V14.33h2.74l1.83-4.57h-4.57V6.1c0-1.01,0.82-0.91,1.83-0.91h1.83V0.61h-3.66
	c-3.03,0-5.49,2.46-5.49,5.49v3.66H5.66v4.57h3.66v10.06H14.81z"/>
<g id="yt" class="st0">
	<path class="st1" d="M23.42,7.16c-0.28-1.2-1.26-2.09-2.44-2.22c-2.8-0.31-5.63-0.31-8.45-0.31c-2.82,0-5.66,0-8.46,0.31
		C2.89,5.08,1.91,5.96,1.63,7.16c-0.39,1.71-0.4,3.58-0.4,5.34c0,1.76,0,3.63,0.39,5.34c0.28,1.2,1.26,2.09,2.44,2.22
		c2.8,0.31,5.63,0.31,8.46,0.31c2.82,0,5.65,0,8.45-0.31c1.18-0.13,2.16-1.02,2.44-2.22c0.39-1.71,0.39-3.58,0.39-5.34
		C23.81,10.74,23.82,8.87,23.42,7.16L23.42,7.16z M9.61,16.01c0-2.5,0-4.97,0-7.47c2.39,1.25,4.77,2.49,7.18,3.74
		C14.39,13.53,12.01,14.76,9.61,16.01L9.61,16.01z M9.61,16.01"/>
</g>
</svg>
