<?xml version="1.0" encoding="utf-8"?>
<!-- Generator: Adobe Illustrator 23.1.0, SVG Export Plug-In . SVG Version: 6.00 Build 0)  -->
<svg version="1.1" id="圖層_1" xmlns="http://www.w3.org/2000/svg" xmlns:xlink="http://www.w3.org/1999/xlink" x="0px" y="0px"
	 viewBox="0 0 20 19" style="enable-background:new 0 0 20 19;" xml:space="preserve">
<style type="text/css">
	.st0{fill:#FFFFFF;}
</style>
<g>
	<g>
		<path class="st0" d="M1.87,18.88c-0.32,0-0.64-0.12-0.88-0.37c-0.49-0.49-0.49-1.28,0-1.77L17.25,0.48c0.49-0.49,1.28-0.49,1.77,0
			s0.49,1.28,0,1.77L2.75,18.52C2.51,18.76,2.19,18.88,1.87,18.88z"/>
	</g>
	<g>
		<path class="st0" d="M18.13,18.88c-0.32,0-0.64-0.12-0.88-0.37L0.98,2.25c-0.49-0.49-0.49-1.28,0-1.77s1.28-0.49,1.77,0
			l16.26,16.26c0.49,0.49,0.49,1.28,0,1.77C18.77,18.76,18.45,18.88,18.13,18.88z"/>
	</g>
</g>
</svg>
