<?xml version="1.0" encoding="utf-8"?>
<!-- Generator: Adobe Illustrator 23.1.0, SVG Export Plug-In . SVG Version: 6.00 Build 0)  -->
<svg version="1.1" id="圖層_1" xmlns="http://www.w3.org/2000/svg" xmlns:xlink="http://www.w3.org/1999/xlink" x="0px" y="0px"
	 viewBox="0 0 132 31" style="enable-background:new 0 0 132 31;" xml:space="preserve">
<style type="text/css">
	.st0{fill:#FFFFFF;}
</style>
<g>
	<path class="st0" d="M30.97,5.66h9.7c0.49,0,0.97,0.1,1.44,0.29c0.47,0.19,0.93,0.52,1.38,0.99c0.78,0.82,1.2,2.05,1.25,3.7v0.6
		c0,1.53-0.18,2.64-0.55,3.34c-0.24,0.35-0.49,0.66-0.75,0.95c-0.26,0.29-0.62,0.55-1.07,0.8c-0.02,0.02-0.04,0.04-0.06,0.08
		c-0.03,0.03-0.04,0.08-0.04,0.13c0,0.04,0.01,0.07,0.03,0.11c0.4,0.52,0.68,0.98,0.84,1.37c0.17,0.39,0.32,0.8,0.46,1.21l1.43,4.41
		c0.04,0.14,0.1,0.27,0.2,0.38c0.09,0.11,0.14,0.19,0.14,0.22c0,0.09-0.05,0.13-0.16,0.13h-3.6c-0.1,0-0.22-0.09-0.34-0.28
		c-0.12-0.18-0.2-0.33-0.24-0.46l-1.62-4.57c-0.25-0.97-0.74-1.51-1.49-1.62h-3.18c-0.17,0-0.26,0.09-0.26,0.26v6.39
		c0,0.17-0.09,0.26-0.26,0.26h-3.26c-0.17,0-0.26-0.09-0.26-0.26V5.92C30.7,5.75,30.79,5.66,30.97,5.66z M34.75,9.05
		c-0.17,0-0.26,0.09-0.26,0.26v4.25c0,0.18,0.1,0.26,0.29,0.26h4.72c0.24,0,0.52-0.12,0.81-0.37c0.24-0.21,0.43-0.51,0.56-0.91
		c0.13-0.4,0.2-0.84,0.2-1.33c0-0.24-0.01-0.46-0.04-0.66c-0.03-0.2-0.08-0.39-0.17-0.56c-0.28-0.57-0.61-0.89-0.99-0.94H34.75z"/>
	<path class="st0" d="M0.11,6.34c0-0.17,0.08-0.25,0.25-0.25h9.16c0.61,0,1.17,0.1,1.69,0.3c0.52,0.2,0.97,0.5,1.35,0.88
		c0.38,0.38,0.68,0.84,0.9,1.38c0.22,0.54,0.33,1.15,0.33,1.83c0,0.92-0.08,1.64-0.23,2.18c-0.15,0.53-0.32,0.94-0.52,1.22
		c-0.2,0.28-0.37,0.47-0.53,0.56c-0.15,0.09-0.23,0.16-0.23,0.22c0,0.09,0.13,0.26,0.39,0.53c0.26,0.27,0.55,0.59,0.88,0.94
		c0.12,0.15,0.22,0.33,0.32,0.53c0.09,0.2,0.17,0.41,0.24,0.63c0.07,0.21,0.11,0.42,0.14,0.64c0.03,0.21,0.04,0.39,0.04,0.55
		c0,0.81-0.08,1.58-0.23,2.29c-0.15,0.71-0.42,1.33-0.8,1.86c-0.38,0.53-0.89,0.94-1.52,1.25c-0.63,0.3-1.42,0.46-2.39,0.46h-9
		c-0.17,0-0.25-0.09-0.25-0.25V6.34z M3.8,13.14c0,0.17,0.08,0.25,0.25,0.25h4.4c0.68,0,1.16-0.15,1.45-0.45
		c0.29-0.29,0.43-0.84,0.43-1.61c0-0.73-0.19-1.23-0.56-1.51C9.41,9.54,8.96,9.39,8.45,9.39h-4.4c-0.17,0-0.25,0.09-0.25,0.25V13.14
		z M3.8,20.77c0,0.17,0.08,0.25,0.25,0.25h5.37c0.29,0,0.53-0.07,0.71-0.23c0.19-0.15,0.34-0.34,0.46-0.57
		c0.12-0.23,0.2-0.47,0.24-0.72c0.04-0.25,0.06-0.47,0.06-0.66c0-0.39-0.05-0.71-0.14-0.98c-0.09-0.26-0.21-0.47-0.36-0.62
		c-0.14-0.15-0.3-0.26-0.48-0.32c-0.18-0.06-0.34-0.09-0.5-0.09H4.05c-0.17,0-0.25,0.09-0.25,0.26V20.77z"/>
	<path class="st0" d="M28.88,19.19c0,1.02-0.09,1.85-0.27,2.52c-0.18,0.66-0.45,1.19-0.81,1.57c-0.37,0.39-0.83,0.66-1.39,0.81
		c-0.56,0.15-1.23,0.23-2.01,0.23h-4.53c-0.78,0-1.43-0.14-1.94-0.42c-0.51-0.28-0.92-0.64-1.22-1.09c-0.3-0.45-0.52-0.96-0.64-1.53
		c-0.12-0.57-0.18-1.15-0.18-1.74v-4.48c0-0.61,0.11-1.16,0.32-1.65c0.21-0.49,0.5-0.91,0.85-1.26c0.36-0.34,0.78-0.61,1.26-0.8
		c0.48-0.19,0.99-0.28,1.54-0.28h5.14c0.46,0,0.92,0.09,1.39,0.25c0.47,0.17,0.88,0.42,1.25,0.75c0.36,0.33,0.66,0.73,0.89,1.2
		c0.23,0.47,0.34,1,0.34,1.61V19.19z M25.75,15.45c0-0.2-0.06-0.39-0.19-0.55c-0.13-0.16-0.29-0.3-0.5-0.41
		c-0.2-0.11-0.43-0.19-0.69-0.24c-0.25-0.05-0.51-0.07-0.76-0.07h-2.78c-0.22,0-0.44,0.02-0.66,0.06c-0.22,0.04-0.42,0.12-0.6,0.22
		c-0.18,0.1-0.33,0.24-0.45,0.4c-0.12,0.17-0.18,0.38-0.18,0.61v4.07c0,0.34,0.07,0.62,0.22,0.84c0.14,0.22,0.33,0.39,0.55,0.52
		c0.22,0.13,0.46,0.21,0.71,0.25c0.25,0.04,0.49,0.06,0.71,0.06h2.34c0.61,0,1.14-0.14,1.59-0.43c0.45-0.29,0.67-0.65,0.67-1.09
		v-2.03V15.45z"/>
	<path class="st0" d="M49.27,19.44c0,0.26,0.07,0.49,0.2,0.7c0.13,0.21,0.32,0.4,0.55,0.56c0.23,0.16,0.5,0.29,0.83,0.38
		c0.32,0.09,0.66,0.14,1.02,0.14h6.05c0.17,0,0.26,0.08,0.26,0.26v2.59c0,0.17-0.09,0.25-0.26,0.25h-4.3
		c-1.42,0-2.62-0.12-3.57-0.35c-0.96-0.24-1.73-0.62-2.31-1.13c-0.59-0.52-1-1.17-1.25-1.97c-0.25-0.8-0.37-1.76-0.37-2.87
		c0-1.36,0.21-2.48,0.63-3.37c0.41-0.89,0.96-1.6,1.63-2.12c0.67-0.52,1.42-0.9,2.27-1.11c0.84-0.21,1.68-0.32,2.53-0.32
		c1.05,0,1.96,0.12,2.72,0.37c0.77,0.24,1.39,0.59,1.88,1.04c0.49,0.45,0.85,1,1.08,1.64c0.23,0.64,0.34,1.36,0.34,2.16v2.65
		c0,0.17-0.08,0.26-0.25,0.26h-9.41C49.36,19.19,49.27,19.27,49.27,19.44z M56.06,16.21c0.17,0,0.25-0.09,0.25-0.25
		c0-0.64-0.3-1.16-0.89-1.54c-0.59-0.38-1.43-0.57-2.5-0.57c-0.34,0-0.72,0.05-1.13,0.15c-0.41,0.1-0.81,0.24-1.2,0.42
		c-0.38,0.18-0.7,0.4-0.95,0.66c-0.25,0.26-0.38,0.56-0.38,0.88c0,0.17,0.09,0.25,0.25,0.25H56.06z"/>
	<path class="st0" d="M68.17,24.07c0,0.17-0.09,0.25-0.25,0.25h-3.18c-0.17,0-0.26-0.09-0.26-0.25V9.65c0-0.17-0.09-0.25-0.26-0.25
		h-4.14c-0.17,0-0.25-0.08-0.25-0.25v-2.8c0-0.17,0.09-0.25,0.25-0.25h12.49c0.17,0,0.25,0.09,0.25,0.25v2.8
		c0,0.17-0.08,0.25-0.25,0.25h-4.15c-0.17,0-0.25,0.09-0.25,0.25V24.07z"/>
	<path class="st0" d="M75.07,19.44c0,0.26,0.07,0.49,0.2,0.7c0.14,0.21,0.32,0.4,0.55,0.56c0.23,0.16,0.5,0.29,0.83,0.38
		c0.32,0.09,0.66,0.14,1.02,0.14h6.05c0.17,0,0.25,0.08,0.25,0.26v2.59c0,0.17-0.09,0.25-0.25,0.25h-4.3
		c-1.42,0-2.61-0.12-3.57-0.35c-0.96-0.24-1.73-0.62-2.31-1.13c-0.58-0.52-1-1.17-1.25-1.97c-0.24-0.8-0.37-1.76-0.37-2.87
		c0-1.36,0.21-2.48,0.62-3.37c0.41-0.89,0.96-1.6,1.63-2.12c0.67-0.52,1.42-0.9,2.26-1.11c0.84-0.21,1.68-0.32,2.53-0.32
		c1.05,0,1.96,0.12,2.72,0.37c0.77,0.24,1.39,0.59,1.88,1.04c0.49,0.45,0.86,1,1.08,1.64c0.23,0.64,0.34,1.36,0.34,2.16v2.65
		c0,0.17-0.09,0.26-0.25,0.26h-9.41C75.15,19.19,75.07,19.27,75.07,19.44z M81.86,16.21c0.17,0,0.26-0.09,0.26-0.25
		c0-0.64-0.3-1.16-0.89-1.54c-0.59-0.38-1.42-0.57-2.49-0.57c-0.34,0-0.72,0.05-1.13,0.15c-0.42,0.1-0.81,0.24-1.2,0.42
		c-0.38,0.18-0.7,0.4-0.95,0.66c-0.26,0.26-0.38,0.56-0.38,0.88c0,0.17,0.08,0.25,0.25,0.25H81.86z"/>
	<path class="st0" d="M97.3,21.22c0.17,0,0.26,0.08,0.26,0.26v2.59c0,0.17-0.09,0.25-0.26,0.25h-4.78c-0.93,0-1.76-0.17-2.49-0.5
		c-0.73-0.33-1.35-0.76-1.86-1.3c-0.51-0.53-0.9-1.13-1.17-1.78c-0.27-0.65-0.41-1.3-0.41-1.95v-2.14c0-0.86,0.12-1.64,0.37-2.33
		c0.25-0.69,0.63-1.27,1.14-1.76c0.52-0.48,1.18-0.86,2-1.12c0.81-0.26,1.78-0.39,2.9-0.39h4.29c0.17,0,0.26,0.09,0.26,0.25v2.59
		c0,0.17-0.09,0.26-0.26,0.26h-4.81c-0.98,0-1.72,0.3-2.2,0.89c-0.48,0.6-0.72,1.32-0.72,2.19v1.09c0,0.85,0.23,1.54,0.7,2.07
		c0.47,0.53,1.21,0.8,2.22,0.8H97.3z"/>
	<path class="st0" d="M106.88,14.67c-0.58-0.33-1.3-0.5-2.15-0.5c-0.29,0-0.58,0.01-0.87,0.04s-0.55,0.08-0.78,0.15
		c-0.23,0.08-0.42,0.19-0.57,0.34c-0.15,0.15-0.23,0.35-0.23,0.59v8.78c0,0.17-0.08,0.25-0.26,0.25h-2.59
		c-0.17,0-0.26-0.09-0.26-0.25v-2.59v-0.05V6.34c0-0.17,0.08-0.25,0.26-0.25h2.59c0.17,0,0.26,0.09,0.26,0.25v4.73h4.43
		c0.53,0,1.04,0.1,1.54,0.29c0.5,0.2,0.94,0.47,1.32,0.82c0.38,0.35,0.69,0.75,0.93,1.21c0.23,0.46,0.36,0.94,0.36,1.45v9.24
		c0,0.17-0.09,0.25-0.25,0.25h-2.59c-0.17,0-0.26-0.09-0.26-0.25v-7.79C107.75,15.54,107.46,15,106.88,14.67z"/>
	<path class="st0" d="M118.23,21.37h1.35c0.19,0.91,0.43,1.45,0.69,1.45c0.26,0,0.5-0.54,0.69-1.45h0.4c0,0,0.07,0.61,0.22,1.07
		c0,0,4.15-0.08,5.02-0.23c0.87-0.15,1.02-1.76,1.09-4.74c0.07-2.98,0.22-9.03-1.02-9.18c-1.26-0.15-5.24-0.15-5.24-0.15l-0.29,1.3
		l-0.17-0.01c-0.2-0.96-0.44-1.53-0.7-1.53c-0.26,0-0.5,0.56-0.7,1.49l-1.34-0.03c0,0-4.5-6.71-10.6-7.12c0,0-14.94-0.09-22.64,0
		c-7.7,0.09-10.1,2.73-10.1,2.73s4.52-1.32,10.1-1.47c5.88-0.16,21.18-0.79,24.88,0.76c1.77,0.74,7.61,4.58,7.96,7.82
		c0.27,2.46,0.7,6.67-1.55,9.3c-1.28,1.49-4.35,5.65-9.15,6.82c-2.44,0.6-4.69,0.94-11.72,1.41c0,0,6.73,0.31,9.15,0
		C106.45,29.37,111.26,30.02,118.23,21.37z"/>
	<g>
		<path class="st0" d="M129.41,5.32c-1.37,0-2.49-1.12-2.49-2.48c0-1.37,1.11-2.49,2.49-2.49c1.37,0,2.48,1.11,2.48,2.49
			C131.89,4.21,130.77,5.32,129.41,5.32z M129.41,0.81c-1.12,0-2.04,0.91-2.04,2.03c0,1.12,0.91,2.03,2.04,2.03
			c1.12,0,2.03-0.91,2.03-2.03C131.43,1.72,130.52,0.81,129.41,0.81z"/>
		<g>
			<path class="st0" d="M128.43,2.83h1.49c0.17,0,0.3-0.02,0.38-0.08c0.08-0.05,0.12-0.14,0.12-0.26V2.29c0-0.08-0.01-0.15-0.04-0.2
				c-0.03-0.05-0.09-0.08-0.17-0.11c-0.08-0.02-0.2-0.03-0.35-0.03h-1.41V2.83 M128.12,3.99V1.7h1.84c0.21,0,0.38,0.02,0.49,0.07
				c0.11,0.05,0.19,0.12,0.22,0.22c0.04,0.1,0.05,0.22,0.05,0.36v0.19c0,0.16-0.05,0.27-0.12,0.33c-0.08,0.06-0.18,0.09-0.3,0.1
				v0.01c0.15,0.03,0.26,0.08,0.31,0.16c0.06,0.08,0.08,0.17,0.08,0.27v0.59h-0.29v-0.5c0-0.12-0.02-0.21-0.06-0.26
				c-0.04-0.06-0.09-0.1-0.16-0.11c-0.07-0.02-0.15-0.03-0.24-0.03h-1.52v0.91H128.12z"/>
			<path class="st0" d="M130.75,4.05h-0.41V3.49c0-0.1-0.02-0.18-0.05-0.23c-0.03-0.05-0.07-0.07-0.12-0.09
				c-0.06-0.01-0.13-0.02-0.21-0.02l-0.02,0h-1.46v0.9h-0.43V1.64h1.9c0.23,0,0.4,0.03,0.52,0.08c0.12,0.05,0.21,0.14,0.25,0.25
				c0.04,0.1,0.06,0.23,0.06,0.38v0.19c-0.01,0.18-0.05,0.31-0.15,0.38c-0.04,0.03-0.08,0.05-0.12,0.07
				c0.06,0.03,0.11,0.07,0.15,0.12c0.06,0.09,0.1,0.19,0.09,0.31V4.05z M130.46,3.93h0.17V3.41c0-0.09-0.02-0.17-0.07-0.24
				c-0.04-0.06-0.14-0.11-0.28-0.13l-0.04-0.01V2.92l0.05-0.01c0.11-0.01,0.2-0.04,0.27-0.09c0.07-0.05,0.1-0.14,0.1-0.28V2.35
				c0-0.14-0.01-0.25-0.05-0.34c-0.04-0.08-0.09-0.14-0.19-0.18c-0.1-0.04-0.26-0.07-0.47-0.07h-1.78v2.18h0.19V3.02h1.6
				c0.09,0,0.17,0.01,0.24,0.03c0.08,0.02,0.15,0.07,0.19,0.14c0.04,0.07,0.06,0.17,0.06,0.3V3.93z M129.93,2.89h-1.56v-1h1.49
				c0.15,0,0.27,0.01,0.35,0.03c0.1,0.02,0.17,0.07,0.21,0.13c0.04,0.06,0.06,0.14,0.05,0.24V2.5c0,0.18-0.08,0.26-0.14,0.31
				C130.24,2.86,130.11,2.89,129.93,2.89z M128.49,2.77h1.43l0,0c0.16,0,0.28-0.03,0.34-0.07c0.06-0.04,0.09-0.11,0.09-0.21V2.29
				c0-0.07-0.01-0.13-0.04-0.17c-0.02-0.04-0.07-0.06-0.13-0.08c-0.08-0.02-0.18-0.03-0.32-0.03h-1.37V2.77z"/>
		</g>
	</g>
	<g>
		<path class="st0" d="M2.79,26.32c0.3,0,0.56,0.03,0.78,0.09c0.21,0.06,0.39,0.14,0.53,0.24c0.13,0.1,0.23,0.22,0.29,0.35
			c0.06,0.13,0.09,0.27,0.09,0.4c0,0.14-0.03,0.27-0.09,0.4c-0.06,0.13-0.16,0.25-0.29,0.35c-0.14,0.1-0.31,0.19-0.53,0.25
			c-0.22,0.06-0.48,0.09-0.78,0.09H1.66v1.22H0.58v-3.4H2.79z M2.5,27.92c0.12,0,0.24-0.01,0.35-0.02c0.11-0.01,0.21-0.04,0.3-0.08
			c0.08-0.03,0.16-0.08,0.21-0.15c0.05-0.07,0.08-0.15,0.08-0.26c0-0.11-0.03-0.19-0.08-0.26C3.31,27.08,3.24,27.03,3.15,27
			c-0.09-0.04-0.19-0.06-0.3-0.08C2.74,26.91,2.62,26.9,2.5,26.9H1.66v1.02H2.5z"/>
		<path class="st0" d="M8.81,26.32v0.63H6.23v0.73H8.6v0.58H6.23v0.83h2.63v0.63H5.16v-3.4H8.81z"/>
		<path class="st0" d="M9.21,26.95v-0.63h4.01v0.63h-1.47v2.77h-1.07v-2.77H9.21z"/>
		<path class="st0" d="M18.32,26.32c0.22,0,0.42,0.02,0.59,0.07c0.18,0.05,0.33,0.12,0.46,0.2c0.13,0.09,0.22,0.18,0.29,0.3
			c0.07,0.11,0.1,0.24,0.1,0.36c0,0.2-0.06,0.37-0.18,0.52c-0.12,0.15-0.32,0.26-0.59,0.33v0.01c0.13,0.03,0.24,0.06,0.33,0.12
			c0.09,0.05,0.16,0.11,0.21,0.19c0.05,0.07,0.09,0.15,0.12,0.23c0.02,0.09,0.04,0.17,0.05,0.26c0,0.06,0.01,0.12,0.01,0.19
			c0.01,0.07,0.01,0.15,0.03,0.22c0.01,0.07,0.03,0.15,0.05,0.22c0.03,0.07,0.06,0.13,0.11,0.18h-1.08
			c-0.06-0.11-0.09-0.24-0.11-0.39c-0.01-0.15-0.03-0.29-0.06-0.43c-0.04-0.18-0.12-0.31-0.23-0.39c-0.12-0.08-0.31-0.12-0.58-0.12
			h-1.07v1.33h-1.08v-3.4H18.32z M17.94,27.86c0.25,0,0.43-0.04,0.55-0.12c0.13-0.08,0.19-0.2,0.19-0.37c0-0.17-0.06-0.28-0.19-0.36
			c-0.12-0.07-0.31-0.11-0.55-0.11h-1.18v0.96H17.94z"/>
		<path class="st0" d="M21.57,29.13c0.15,0.1,0.36,0.15,0.63,0.15c0.2,0,0.37-0.03,0.51-0.1c0.14-0.07,0.23-0.14,0.26-0.22h0.86
			c-0.14,0.29-0.35,0.51-0.63,0.63c-0.28,0.13-0.63,0.19-1.03,0.19c-0.28,0-0.53-0.03-0.75-0.09c-0.23-0.06-0.42-0.15-0.57-0.27
			c-0.16-0.11-0.28-0.25-0.36-0.41c-0.09-0.16-0.13-0.33-0.13-0.52c0-0.19,0.04-0.36,0.13-0.52c0.09-0.16,0.21-0.29,0.37-0.41
			c0.16-0.12,0.35-0.2,0.57-0.27c0.22-0.06,0.47-0.1,0.74-0.1c0.3,0,0.57,0.04,0.79,0.12c0.22,0.08,0.41,0.19,0.55,0.33
			c0.14,0.14,0.24,0.29,0.31,0.46c0.06,0.17,0.08,0.36,0.07,0.55h-2.56C21.35,28.87,21.42,29.03,21.57,29.13z M22.67,27.83
			c-0.12-0.09-0.3-0.13-0.53-0.13c-0.16,0-0.29,0.02-0.39,0.05c-0.1,0.04-0.19,0.08-0.25,0.14c-0.06,0.05-0.11,0.11-0.13,0.17
			c-0.02,0.06-0.04,0.11-0.04,0.16h1.58C22.87,28.05,22.79,27.93,22.67,27.83z"/>
		<path class="st0" d="M26.16,27.7c-0.16,0-0.29,0.02-0.39,0.07c-0.11,0.05-0.19,0.11-0.26,0.19c-0.06,0.08-0.11,0.16-0.14,0.26
			c-0.03,0.09-0.04,0.19-0.04,0.28c0,0.09,0.02,0.18,0.04,0.27c0.03,0.09,0.07,0.17,0.13,0.25c0.06,0.08,0.14,0.14,0.25,0.19
			c0.11,0.05,0.23,0.07,0.38,0.07c0.23,0,0.41-0.04,0.54-0.14c0.12-0.09,0.2-0.21,0.23-0.36h0.94c-0.07,0.33-0.25,0.58-0.55,0.75
			c-0.3,0.17-0.69,0.25-1.16,0.25c-0.27,0-0.51-0.03-0.73-0.09c-0.22-0.06-0.41-0.15-0.57-0.26c-0.16-0.11-0.28-0.24-0.36-0.4
			c-0.08-0.15-0.13-0.32-0.13-0.51c0-0.19,0.04-0.37,0.12-0.53c0.08-0.16,0.2-0.3,0.36-0.42c0.16-0.12,0.34-0.21,0.57-0.28
			c0.22-0.06,0.48-0.1,0.77-0.1c0.21,0,0.41,0.02,0.61,0.06c0.2,0.04,0.37,0.1,0.52,0.17c0.15,0.08,0.28,0.17,0.38,0.29
			c0.09,0.12,0.15,0.25,0.16,0.41h-0.95C26.81,27.84,26.57,27.7,26.16,27.7z"/>
		<path class="st0" d="M29.7,30.45c-0.19,0.09-0.45,0.13-0.78,0.13c-0.1,0-0.2,0-0.3-0.01c-0.1-0.01-0.2-0.01-0.3-0.02V30
			c0.09,0,0.18,0.01,0.28,0.02c0.1,0.01,0.19,0.01,0.29,0.01c0.13-0.01,0.22-0.04,0.28-0.11c0.06-0.06,0.09-0.13,0.09-0.2
			c0-0.05-0.01-0.1-0.04-0.15l-1.24-2.31h1.04l0.8,1.69h0.01l0.77-1.69h1.01l-1.48,2.77C30.04,30.22,29.89,30.37,29.7,30.45z"/>
		<path class="st0" d="M33.64,27.7c-0.15,0-0.29,0.02-0.39,0.07c-0.11,0.05-0.19,0.11-0.26,0.19c-0.06,0.08-0.11,0.16-0.14,0.26
			c-0.03,0.09-0.04,0.19-0.04,0.28c0,0.09,0.01,0.18,0.04,0.27c0.03,0.09,0.07,0.17,0.14,0.25c0.06,0.08,0.14,0.14,0.25,0.19
			c0.1,0.05,0.23,0.07,0.38,0.07c0.23,0,0.41-0.04,0.54-0.14c0.13-0.09,0.2-0.21,0.24-0.36h0.94c-0.06,0.33-0.24,0.58-0.55,0.75
			c-0.3,0.17-0.69,0.25-1.16,0.25c-0.27,0-0.51-0.03-0.73-0.09c-0.22-0.06-0.41-0.15-0.57-0.26c-0.16-0.11-0.28-0.24-0.37-0.4
			c-0.09-0.15-0.13-0.32-0.13-0.51c0-0.19,0.04-0.37,0.12-0.53c0.08-0.16,0.2-0.3,0.35-0.42c0.16-0.12,0.35-0.21,0.57-0.28
			c0.22-0.06,0.48-0.1,0.76-0.1c0.21,0,0.41,0.02,0.61,0.06c0.2,0.04,0.37,0.1,0.52,0.17c0.16,0.08,0.28,0.17,0.38,0.29
			c0.1,0.12,0.15,0.25,0.16,0.41h-0.95C34.3,27.84,34.06,27.7,33.64,27.7z"/>
		<path class="st0" d="M36.88,26.32v3.4h-0.97v-3.4H36.88z"/>
		<path class="st0" d="M37.68,26.88v-0.56h0.97v0.56H37.68z M38.65,27.26v2.46h-0.97v-2.46H38.65z"/>
		<path class="st0" d="M40.34,27.26v0.34h0.02c0.12-0.14,0.28-0.24,0.48-0.31c0.2-0.07,0.4-0.1,0.6-0.1c0.26,0,0.47,0.03,0.64,0.07
			c0.17,0.05,0.3,0.12,0.4,0.2c0.09,0.09,0.16,0.19,0.2,0.32c0.04,0.12,0.06,0.26,0.06,0.42v1.51h-0.97v-1.39
			c0-0.2-0.04-0.35-0.14-0.45c-0.09-0.1-0.25-0.15-0.49-0.15c-0.27,0-0.46,0.05-0.58,0.16c-0.12,0.11-0.18,0.29-0.18,0.54v1.29
			h-0.97v-2.46H40.34z"/>
		<path class="st0" d="M46.83,29.9c-0.04,0.13-0.12,0.25-0.25,0.36c-0.13,0.11-0.31,0.2-0.56,0.28c-0.25,0.08-0.57,0.11-0.97,0.11
			c-0.18,0-0.35-0.01-0.53-0.05c-0.18-0.03-0.35-0.08-0.49-0.14c-0.15-0.06-0.27-0.14-0.37-0.24c-0.1-0.1-0.15-0.22-0.17-0.36h0.97
			c0.04,0.13,0.14,0.21,0.27,0.26c0.13,0.05,0.29,0.07,0.46,0.07c0.27,0,0.48-0.06,0.6-0.17c0.13-0.12,0.19-0.26,0.18-0.43v-0.32
			h-0.01c-0.1,0.13-0.26,0.23-0.45,0.29c-0.19,0.06-0.4,0.09-0.61,0.09c-0.27,0-0.49-0.03-0.69-0.1c-0.19-0.06-0.35-0.15-0.47-0.27
			c-0.12-0.11-0.21-0.24-0.27-0.39c-0.06-0.15-0.09-0.31-0.09-0.48c0-0.16,0.04-0.31,0.1-0.46c0.07-0.15,0.16-0.28,0.29-0.39
			c0.13-0.11,0.29-0.2,0.48-0.27c0.19-0.06,0.41-0.1,0.65-0.1c0.23,0,0.44,0.03,0.62,0.09c0.17,0.06,0.32,0.16,0.44,0.3h0.01v-0.33
			h0.93v2.3C46.89,29.66,46.87,29.77,46.83,29.9z M45.5,29.08c0.1-0.04,0.19-0.09,0.26-0.15c0.07-0.07,0.12-0.14,0.15-0.22
			c0.04-0.08,0.05-0.17,0.05-0.25c0-0.1-0.01-0.2-0.04-0.29c-0.03-0.09-0.07-0.17-0.14-0.24c-0.06-0.07-0.15-0.13-0.25-0.17
			c-0.11-0.04-0.24-0.06-0.4-0.06c-0.14,0-0.25,0.02-0.36,0.06c-0.1,0.04-0.18,0.09-0.25,0.16c-0.06,0.06-0.11,0.14-0.14,0.22
			c-0.03,0.08-0.04,0.17-0.04,0.27c0,0.09,0.01,0.17,0.04,0.26c0.02,0.09,0.07,0.17,0.13,0.23c0.06,0.07,0.14,0.13,0.24,0.17
			c0.1,0.04,0.22,0.07,0.38,0.07C45.27,29.14,45.39,29.12,45.5,29.08z"/>
		<path class="st0" d="M53.33,26.32v0.63h-2.58v0.73h2.37v0.58h-2.37v0.83h2.64v0.63h-3.71v-3.4H53.33z"/>
		<path class="st0" d="M56.49,30.58v-1.17h-0.01c-0.12,0.13-0.28,0.23-0.48,0.28c-0.21,0.06-0.42,0.08-0.64,0.08
			c-0.17,0-0.33-0.02-0.51-0.06c-0.18-0.04-0.34-0.11-0.49-0.21c-0.14-0.1-0.27-0.23-0.36-0.4c-0.1-0.16-0.14-0.36-0.14-0.6
			c0-0.17,0.03-0.33,0.09-0.49c0.07-0.16,0.17-0.3,0.3-0.42c0.13-0.12,0.3-0.22,0.5-0.29c0.2-0.07,0.43-0.11,0.7-0.11
			c0.22,0,0.42,0.03,0.62,0.09c0.19,0.06,0.35,0.16,0.46,0.29h0.01v-0.32h0.93v3.32H56.49z M54.88,28.78
			c0.02,0.09,0.07,0.18,0.14,0.25c0.07,0.07,0.15,0.13,0.26,0.18c0.11,0.05,0.24,0.07,0.4,0.07c0.16,0,0.29-0.02,0.4-0.06
			c0.11-0.04,0.19-0.1,0.26-0.17c0.07-0.07,0.11-0.15,0.14-0.25c0.03-0.09,0.04-0.19,0.04-0.29c0-0.09-0.01-0.19-0.04-0.28
			c-0.03-0.1-0.08-0.18-0.14-0.26c-0.06-0.08-0.15-0.14-0.25-0.19c-0.11-0.04-0.24-0.07-0.39-0.07c-0.16,0-0.29,0.02-0.41,0.07
			c-0.11,0.04-0.2,0.1-0.26,0.18c-0.07,0.07-0.12,0.16-0.15,0.25c-0.03,0.1-0.04,0.19-0.04,0.29
			C54.84,28.59,54.85,28.69,54.88,28.78z"/>
		<path class="st0" d="M60.6,29.72v-0.34h-0.02c-0.12,0.14-0.28,0.25-0.48,0.31c-0.2,0.06-0.4,0.09-0.61,0.09
			c-0.26,0-0.47-0.02-0.64-0.07c-0.17-0.05-0.29-0.11-0.39-0.2c-0.1-0.09-0.17-0.19-0.2-0.32c-0.04-0.13-0.06-0.26-0.06-0.42v-1.51
			h0.97v1.39c0,0.2,0.04,0.35,0.13,0.45c0.09,0.1,0.26,0.15,0.49,0.15c0.27,0,0.46-0.06,0.57-0.16c0.12-0.11,0.18-0.29,0.18-0.54
			v-1.29h0.97v2.46H60.6z"/>
		<path class="st0" d="M62.29,26.88v-0.56h0.97v0.56H62.29z M63.26,27.26v2.46h-0.97v-2.46H63.26z"/>
		<path class="st0" d="M64.95,27.26v0.32h0.01c0.12-0.13,0.27-0.23,0.45-0.29c0.19-0.06,0.39-0.09,0.61-0.09
			c0.28,0,0.52,0.04,0.72,0.11c0.2,0.08,0.37,0.17,0.5,0.29c0.14,0.12,0.23,0.26,0.29,0.42c0.07,0.16,0.1,0.33,0.1,0.5
			c0,0.17-0.03,0.32-0.1,0.48c-0.06,0.15-0.16,0.29-0.29,0.4c-0.13,0.12-0.29,0.21-0.49,0.28c-0.2,0.07-0.42,0.1-0.68,0.1
			c-0.22,0-0.42-0.03-0.61-0.09c-0.18-0.06-0.34-0.16-0.45-0.28H65v1.17h-0.97v-3.32H64.95z M66.22,29.21
			c0.11-0.04,0.2-0.1,0.26-0.17c0.07-0.07,0.11-0.15,0.14-0.25c0.03-0.09,0.04-0.19,0.04-0.29c0-0.1-0.01-0.19-0.04-0.29
			c-0.03-0.1-0.08-0.18-0.15-0.25c-0.07-0.08-0.15-0.14-0.26-0.18c-0.11-0.05-0.24-0.07-0.39-0.07c-0.16,0-0.29,0.02-0.4,0.07
			c-0.1,0.04-0.19,0.11-0.26,0.18c-0.07,0.07-0.11,0.16-0.14,0.26c-0.03,0.09-0.04,0.19-0.04,0.29s0.01,0.2,0.04,0.29
			c0.03,0.1,0.08,0.18,0.14,0.25c0.07,0.07,0.15,0.13,0.26,0.17c0.11,0.05,0.24,0.07,0.4,0.07C65.98,29.28,66.11,29.26,66.22,29.21z
			"/>
		<path class="st0" d="M69.16,27.26v0.33h0.02c0.13-0.13,0.28-0.23,0.46-0.29c0.18-0.07,0.39-0.11,0.62-0.11
			c0.22,0,0.43,0.03,0.61,0.09c0.19,0.06,0.32,0.17,0.42,0.32c0.1-0.11,0.25-0.2,0.43-0.28c0.18-0.08,0.39-0.12,0.64-0.12
			c0.19,0,0.36,0.02,0.52,0.05c0.16,0.03,0.3,0.08,0.41,0.15c0.11,0.07,0.21,0.16,0.27,0.27c0.06,0.11,0.1,0.25,0.1,0.41v1.65h-0.98
			v-1.39c0-0.08,0-0.16-0.01-0.23c-0.01-0.07-0.04-0.13-0.08-0.19c-0.04-0.06-0.1-0.1-0.18-0.13c-0.08-0.03-0.19-0.04-0.33-0.04
			c-0.14,0-0.25,0.02-0.33,0.05c-0.08,0.04-0.15,0.08-0.2,0.14c-0.05,0.06-0.08,0.13-0.1,0.2c-0.02,0.08-0.02,0.15-0.02,0.23v1.37
			h-0.97v-1.38c0-0.07,0-0.14-0.01-0.22c0-0.07-0.02-0.14-0.06-0.2c-0.03-0.06-0.09-0.11-0.17-0.15c-0.08-0.04-0.2-0.05-0.35-0.05
			c-0.05,0-0.11,0.01-0.18,0.02c-0.07,0.01-0.15,0.04-0.22,0.08c-0.07,0.05-0.13,0.1-0.18,0.17c-0.05,0.07-0.07,0.17-0.07,0.29v1.43
			h-0.97v-2.46H69.16z"/>
		<path class="st0" d="M75.47,29.13c0.15,0.1,0.36,0.15,0.63,0.15c0.2,0,0.37-0.03,0.51-0.1c0.14-0.07,0.23-0.14,0.26-0.22h0.86
			c-0.13,0.29-0.35,0.51-0.63,0.63c-0.28,0.13-0.63,0.19-1.03,0.19c-0.28,0-0.53-0.03-0.75-0.09c-0.22-0.06-0.42-0.15-0.57-0.27
			c-0.15-0.11-0.27-0.25-0.36-0.41c-0.08-0.16-0.13-0.33-0.13-0.52c0-0.19,0.04-0.36,0.13-0.52c0.09-0.16,0.21-0.29,0.37-0.41
			c0.16-0.12,0.35-0.2,0.57-0.27c0.22-0.06,0.47-0.1,0.74-0.1c0.3,0,0.56,0.04,0.79,0.12c0.22,0.08,0.41,0.19,0.55,0.33
			c0.15,0.14,0.25,0.29,0.31,0.46c0.06,0.17,0.09,0.36,0.07,0.55h-2.55C75.24,28.87,75.32,29.03,75.47,29.13z M76.56,27.83
			c-0.11-0.09-0.29-0.13-0.53-0.13c-0.16,0-0.29,0.02-0.39,0.05c-0.1,0.04-0.19,0.08-0.25,0.14c-0.06,0.05-0.11,0.11-0.13,0.17
			c-0.02,0.06-0.04,0.11-0.04,0.16h1.58C76.76,28.05,76.68,27.93,76.56,27.83z"/>
		<path class="st0" d="M79.28,27.26v0.34h0.02c0.12-0.14,0.28-0.24,0.48-0.31c0.19-0.07,0.4-0.1,0.6-0.1c0.26,0,0.48,0.03,0.64,0.07
			c0.17,0.05,0.3,0.12,0.39,0.2c0.1,0.09,0.16,0.19,0.2,0.32c0.04,0.12,0.06,0.26,0.06,0.42v1.51h-0.97v-1.39
			c0-0.2-0.05-0.35-0.14-0.45c-0.09-0.1-0.25-0.15-0.49-0.15c-0.27,0-0.46,0.05-0.57,0.16c-0.12,0.11-0.18,0.29-0.18,0.54v1.29
			h-0.98v-2.46H79.28z"/>
		<path class="st0" d="M84.37,27.26v0.45h-0.71v1.22c0,0.11,0.03,0.19,0.08,0.23c0.05,0.04,0.17,0.06,0.33,0.06
			c0.05,0,0.11,0,0.16-0.01c0.05,0,0.1-0.01,0.14-0.01v0.52c-0.08,0.01-0.17,0.01-0.28,0.02c-0.1,0-0.2,0.01-0.29,0.01
			c-0.15,0-0.29-0.01-0.43-0.02c-0.14-0.02-0.25-0.04-0.36-0.09c-0.1-0.04-0.18-0.1-0.24-0.18c-0.06-0.08-0.09-0.17-0.09-0.3v-1.45
			h-0.59v-0.45h0.59v-0.74h0.97v0.74H84.37z"/>
	</g>
</g>
</svg>
